<svg width="1341" height="933" viewBox="0 0 1341 933" fill="none" xmlns="http://www.w3.org/2000/svg">
<g clip-path="url(#clip0_122_130)">
<rect width="1341" height="933" fill="#121214"/>
<g opacity="0.2" filter="url(#filter0_f_122_130)">
<ellipse cx="670.5" cy="350" rx="670.5" ry="350" fill="#B3A659"/>
</g>
<path d="M191.035 586C192.53 586 193.662 586.63 194.431 587.891C195.213 589.138 195.605 590.953 195.605 593.336C195.605 595.719 195.213 597.541 194.431 598.802C193.662 600.063 192.53 600.693 191.035 600.693C189.554 600.693 188.422 600.063 187.639 598.802C186.856 597.541 186.465 595.719 186.465 593.336C186.465 590.967 186.856 589.152 187.639 587.891C188.422 586.63 189.554 586 191.035 586ZM187.953 593.336C187.953 595.026 188.107 596.35 188.415 597.306L193.068 588.099C192.579 587.448 191.901 587.122 191.035 587.122C190.071 587.122 189.316 587.635 188.771 588.66C188.226 589.672 187.953 591.23 187.953 593.336ZM191.035 599.55C192.013 599.55 192.775 599.044 193.32 598.033C193.865 597.008 194.137 595.442 194.137 593.336C194.137 591.549 193.963 590.163 193.613 589.18L188.96 598.469C189.463 599.19 190.154 599.55 191.035 599.55Z" fill="url(#paint0_linear_122_130)" fill-opacity="0.6"/>
<path d="M192.293 623.135H195.374V624.236H187.387V623.135H190.951V611.455L187.555 613.471L186.968 612.536L191.161 609.959H192.293V623.135Z" fill="url(#paint1_linear_122_130)" fill-opacity="0.6"/>
<path d="M191.035 633.502C192.53 633.502 193.662 634.133 194.431 635.393C195.213 636.64 195.605 638.455 195.605 640.838C195.605 643.221 195.213 645.043 194.431 646.304C193.662 647.565 192.53 648.195 191.035 648.195C189.554 648.195 188.422 647.565 187.639 646.304C186.856 645.043 186.465 643.221 186.465 640.838C186.465 638.469 186.856 636.654 187.639 635.393C188.422 634.133 189.554 633.502 191.035 633.502ZM187.953 640.838C187.953 642.529 188.107 643.852 188.415 644.808L193.068 635.601C192.579 634.95 191.901 634.624 191.035 634.624C190.071 634.624 189.316 635.137 188.771 636.162C188.226 637.174 187.953 638.732 187.953 640.838ZM191.035 647.052C192.013 647.052 192.775 646.546 193.32 645.535C193.865 644.51 194.137 642.944 194.137 640.838C194.137 639.051 193.963 637.665 193.613 636.682L188.96 645.971C189.463 646.692 190.154 647.052 191.035 647.052Z" fill="url(#paint2_linear_122_130)" fill-opacity="0.6"/>
<path d="M192.293 670.637H195.374V671.738H187.387V670.637H190.951V658.957L187.555 660.973L186.968 660.038L191.161 657.461H192.293V670.637Z" fill="url(#paint3_linear_122_130)" fill-opacity="0.6"/>
<path d="M192.293 694.388H195.374V695.489H187.387V694.388H190.951V682.708L187.555 684.724L186.968 683.789L191.161 681.212H192.293V694.388Z" fill="url(#paint4_linear_122_130)" fill-opacity="0.6"/>
<path d="M191.035 704.755C192.53 704.755 193.662 705.386 194.431 706.646C195.213 707.893 195.605 709.708 195.605 712.091C195.605 714.474 195.213 716.296 194.431 717.557C193.662 718.818 192.53 719.448 191.035 719.448C189.554 719.448 188.422 718.818 187.639 717.557C186.856 716.296 186.465 714.474 186.465 712.091C186.465 709.722 186.856 707.907 187.639 706.646C188.422 705.386 189.554 704.755 191.035 704.755ZM187.953 712.091C187.953 713.782 188.107 715.105 188.415 716.061L193.068 706.854C192.579 706.203 191.901 705.878 191.035 705.878C190.071 705.878 189.316 706.39 188.771 707.415C188.226 708.427 187.953 709.985 187.953 712.091ZM191.035 718.305C192.013 718.305 192.775 717.8 193.32 716.788C193.865 715.763 194.137 714.197 194.137 712.091C194.137 710.304 193.963 708.919 193.613 707.935L188.96 717.225C189.463 717.945 190.154 718.305 191.035 718.305Z" fill="url(#paint5_linear_122_130)" fill-opacity="0.6"/>
<path d="M192.293 741.89H195.374V742.992H187.387V741.89H190.951V730.21L187.555 732.226L186.968 731.291L191.161 728.714H192.293V741.89Z" fill="url(#paint6_linear_122_130)" fill-opacity="0.6"/>
<path d="M191.035 752.257C192.53 752.257 193.662 752.888 194.431 754.149C195.213 755.396 195.605 757.211 195.605 759.594C195.605 761.977 195.213 763.798 194.431 765.059C193.662 766.32 192.53 766.95 191.035 766.95C189.554 766.95 188.422 766.32 187.639 765.059C186.856 763.798 186.465 761.977 186.465 759.594C186.465 757.224 186.856 755.409 187.639 754.149C188.422 752.888 189.554 752.257 191.035 752.257ZM187.953 759.594C187.953 761.284 188.107 762.607 188.415 763.563L193.068 754.356C192.579 753.705 191.901 753.38 191.035 753.38C190.071 753.38 189.316 753.892 188.771 754.918C188.226 755.929 187.953 757.488 187.953 759.594ZM191.035 765.807C192.013 765.807 192.775 765.302 193.32 764.29C193.865 763.265 194.137 761.699 194.137 759.594C194.137 757.806 193.963 756.421 193.613 755.437L188.96 764.727C189.463 765.447 190.154 765.807 191.035 765.807Z" fill="url(#paint7_linear_122_130)" fill-opacity="0.6"/>
<path d="M191.035 776.008C192.53 776.008 193.662 776.639 194.431 777.9C195.213 779.147 195.605 780.962 195.605 783.345C195.605 785.728 195.213 787.549 194.431 788.81C193.662 790.071 192.53 790.701 191.035 790.701C189.554 790.701 188.422 790.071 187.639 788.81C186.856 787.549 186.465 785.728 186.465 783.345C186.465 780.975 186.856 779.16 187.639 777.9C188.422 776.639 189.554 776.008 191.035 776.008ZM187.953 783.345C187.953 785.035 188.107 786.358 188.415 787.314L193.068 778.107C192.579 777.456 191.901 777.131 191.035 777.131C190.071 777.131 189.316 777.643 188.771 778.669C188.226 779.68 187.953 781.239 187.953 783.345ZM191.035 789.558C192.013 789.558 192.775 789.053 193.32 788.041C193.865 787.016 194.137 785.451 194.137 783.345C194.137 781.557 193.963 780.172 193.613 779.188L188.96 788.478C189.463 789.198 190.154 789.558 191.035 789.558Z" fill="url(#paint8_linear_122_130)" fill-opacity="0.6"/>
<path d="M192.293 813.143H195.374V814.245H187.387V813.143H190.951V801.464L187.555 803.48L186.968 802.544L191.161 799.967H192.293V813.143Z" fill="url(#paint9_linear_122_130)" fill-opacity="0.6"/>
<path d="M191.035 823.511C192.53 823.511 193.662 824.141 194.431 825.402C195.213 826.649 195.605 828.464 195.605 830.847C195.605 833.23 195.213 835.052 194.431 836.312C193.662 837.573 192.53 838.204 191.035 838.204C189.554 838.204 188.422 837.573 187.639 836.312C186.856 835.052 186.465 833.23 186.465 830.847C186.465 828.478 186.856 826.663 187.639 825.402C188.422 824.141 189.554 823.511 191.035 823.511ZM187.953 830.847C187.953 832.537 188.107 833.86 188.415 834.816L193.068 825.61C192.579 824.958 191.901 824.633 191.035 824.633C190.071 824.633 189.316 825.145 188.771 826.171C188.226 827.182 187.953 828.741 187.953 830.847ZM191.035 837.061C192.013 837.061 192.775 836.555 193.32 835.543C193.865 834.518 194.137 832.953 194.137 830.847C194.137 829.059 193.963 827.674 193.613 826.69L188.96 835.98C189.463 836.7 190.154 837.061 191.035 837.061Z" fill="url(#paint10_linear_122_130)" fill-opacity="0.6"/>
<path d="M192.293 860.645H195.374V861.747H187.387V860.645H190.951V848.966L187.555 850.982L186.968 850.046L191.161 847.469H192.293V860.645Z" fill="url(#paint11_linear_122_130)" fill-opacity="0.6"/>
<path d="M192.293 884.396H195.374V885.498H187.387V884.396H190.951V872.717L187.555 874.733L186.968 873.798L191.161 871.221H192.293V884.396Z" fill="url(#paint12_linear_122_130)" fill-opacity="0.6"/>
<path d="M229.965 633.502C231.46 633.502 232.592 634.133 233.361 635.393C234.144 636.64 234.535 638.455 234.535 640.838C234.535 643.221 234.144 645.043 233.361 646.304C232.592 647.565 231.46 648.195 229.965 648.195C228.484 648.195 227.352 647.565 226.569 646.304C225.787 645.043 225.395 643.221 225.395 640.838C225.395 638.469 225.787 636.654 226.569 635.393C227.352 634.133 228.484 633.502 229.965 633.502ZM226.884 640.838C226.884 642.529 227.037 643.852 227.345 644.808L231.998 635.601C231.509 634.95 230.832 634.624 229.965 634.624C229.001 634.624 228.246 635.137 227.701 636.162C227.156 637.174 226.884 638.732 226.884 640.838ZM229.965 647.052C230.943 647.052 231.705 646.546 232.25 645.535C232.795 644.51 233.068 642.944 233.068 640.838C233.068 639.051 232.893 637.665 232.543 636.682L227.89 645.971C228.393 646.692 229.085 647.052 229.965 647.052Z" fill="url(#paint13_linear_122_130)" fill-opacity="0.6"/>
<path d="M231.223 670.637H234.304V671.738H226.318V670.637H229.881V658.957L226.485 660.973L225.898 660.038L230.091 657.461H231.223V670.637Z" fill="url(#paint14_linear_122_130)" fill-opacity="0.6"/>
<path d="M229.965 681.004C231.46 681.004 232.592 681.635 233.361 682.895C234.144 684.142 234.535 685.957 234.535 688.34C234.535 690.723 234.144 692.545 233.361 693.806C232.592 695.067 231.46 695.697 229.965 695.697C228.484 695.697 227.352 695.067 226.569 693.806C225.787 692.545 225.395 690.723 225.395 688.34C225.395 685.971 225.787 684.156 226.569 682.895C227.352 681.635 228.484 681.004 229.965 681.004ZM226.884 688.34C226.884 690.031 227.037 691.354 227.345 692.31L231.998 683.103C231.509 682.452 230.832 682.126 229.965 682.126C229.001 682.126 228.246 682.639 227.701 683.664C227.156 684.676 226.884 686.234 226.884 688.34ZM229.965 694.554C230.943 694.554 231.705 694.049 232.25 693.037C232.795 692.012 233.068 690.446 233.068 688.34C233.068 686.553 232.893 685.168 232.543 684.184L227.89 693.474C228.393 694.194 229.085 694.554 229.965 694.554Z" fill="url(#paint15_linear_122_130)" fill-opacity="0.6"/>
<path d="M229.965 704.755C231.46 704.755 232.592 705.386 233.361 706.646C234.144 707.893 234.535 709.708 234.535 712.091C234.535 714.474 234.144 716.296 233.361 717.557C232.592 718.818 231.46 719.448 229.965 719.448C228.484 719.448 227.352 718.818 226.569 717.557C225.787 716.296 225.395 714.474 225.395 712.091C225.395 709.722 225.787 707.907 226.569 706.646C227.352 705.386 228.484 704.755 229.965 704.755ZM226.884 712.091C226.884 713.782 227.037 715.105 227.345 716.061L231.998 706.854C231.509 706.203 230.832 705.878 229.965 705.878C229.001 705.878 228.246 706.39 227.701 707.415C227.156 708.427 226.884 709.985 226.884 712.091ZM229.965 718.305C230.943 718.305 231.705 717.8 232.25 716.788C232.795 715.763 233.068 714.197 233.068 712.091C233.068 710.304 232.893 708.919 232.543 707.935L227.89 717.225C228.393 717.945 229.085 718.305 229.965 718.305Z" fill="url(#paint16_linear_122_130)" fill-opacity="0.6"/>
<path d="M231.223 741.89H234.304V742.992H226.318V741.89H229.881V730.21L226.485 732.226L225.898 731.291L230.091 728.714H231.223V741.89Z" fill="url(#paint17_linear_122_130)" fill-opacity="0.6"/>
<path d="M229.965 752.257C231.46 752.257 232.592 752.888 233.361 754.149C234.144 755.396 234.535 757.211 234.535 759.594C234.535 761.977 234.144 763.798 233.361 765.059C232.592 766.32 231.46 766.95 229.965 766.95C228.484 766.95 227.352 766.32 226.569 765.059C225.787 763.798 225.395 761.977 225.395 759.594C225.395 757.224 225.787 755.409 226.569 754.149C227.352 752.888 228.484 752.257 229.965 752.257ZM226.884 759.594C226.884 761.284 227.037 762.607 227.345 763.563L231.998 754.356C231.509 753.705 230.832 753.38 229.965 753.38C229.001 753.38 228.246 753.892 227.701 754.918C227.156 755.929 226.884 757.488 226.884 759.594ZM229.965 765.807C230.943 765.807 231.705 765.302 232.25 764.29C232.795 763.265 233.068 761.699 233.068 759.594C233.068 757.806 232.893 756.421 232.543 755.437L227.89 764.727C228.393 765.447 229.085 765.807 229.965 765.807Z" fill="url(#paint18_linear_122_130)" fill-opacity="0.6"/>
<path d="M231.223 789.392H234.304V790.494H226.318V789.392H229.881V777.713L226.485 779.728L225.898 778.793L230.091 776.216H231.223V789.392Z" fill="url(#paint19_linear_122_130)" fill-opacity="0.6"/>
<path d="M229.965 799.76C231.46 799.76 232.592 800.39 233.361 801.651C234.144 802.898 234.535 804.713 234.535 807.096C234.535 809.479 234.144 811.301 233.361 812.561C232.592 813.822 231.46 814.453 229.965 814.453C228.484 814.453 227.352 813.822 226.569 812.561C225.787 811.301 225.395 809.479 225.395 807.096C225.395 804.726 225.787 802.911 226.569 801.651C227.352 800.39 228.484 799.76 229.965 799.76ZM226.884 807.096C226.884 808.786 227.037 810.109 227.345 811.065L231.998 801.859C231.509 801.207 230.832 800.882 229.965 800.882C229.001 800.882 228.246 801.394 227.701 802.42C227.156 803.431 226.884 804.99 226.884 807.096ZM229.965 813.31C230.943 813.31 231.705 812.804 232.25 811.792C232.795 810.767 233.068 809.202 233.068 807.096C233.068 805.308 232.893 803.923 232.543 802.939L227.89 812.229C228.393 812.949 229.085 813.31 229.965 813.31Z" fill="url(#paint20_linear_122_130)" fill-opacity="0.6"/>
<path d="M229.965 823.511C231.46 823.511 232.592 824.141 233.361 825.402C234.144 826.649 234.535 828.464 234.535 830.847C234.535 833.23 234.144 835.052 233.361 836.312C232.592 837.573 231.46 838.204 229.965 838.204C228.484 838.204 227.352 837.573 226.569 836.312C225.787 835.052 225.395 833.23 225.395 830.847C225.395 828.478 225.787 826.663 226.569 825.402C227.352 824.141 228.484 823.511 229.965 823.511ZM226.884 830.847C226.884 832.537 227.037 833.86 227.345 834.816L231.998 825.61C231.509 824.958 230.832 824.633 229.965 824.633C229.001 824.633 228.246 825.145 227.701 826.171C227.156 827.182 226.884 828.741 226.884 830.847ZM229.965 837.061C230.943 837.061 231.705 836.555 232.25 835.543C232.795 834.518 233.068 832.953 233.068 830.847C233.068 829.059 232.893 827.674 232.543 826.69L227.89 835.98C228.393 836.7 229.085 837.061 229.965 837.061Z" fill="url(#paint21_linear_122_130)" fill-opacity="0.6"/>
<path d="M231.223 860.645H234.304V861.747H226.318V860.645H229.881V848.966L226.485 850.982L225.898 850.046L230.091 847.469H231.223V860.645Z" fill="url(#paint22_linear_122_130)" fill-opacity="0.6"/>
<path d="M229.965 871.013C231.46 871.013 232.592 871.643 233.361 872.904C234.144 874.151 234.535 875.966 234.535 878.349C234.535 880.732 234.144 882.554 233.361 883.815C232.592 885.075 231.46 885.706 229.965 885.706C228.484 885.706 227.352 885.075 226.569 883.815C225.787 882.554 225.395 880.732 225.395 878.349C225.395 875.98 225.787 874.165 226.569 872.904C227.352 871.643 228.484 871.013 229.965 871.013ZM226.884 878.349C226.884 880.039 227.037 881.362 227.345 882.318L231.998 873.112C231.509 872.461 230.832 872.135 229.965 872.135C229.001 872.135 228.246 872.648 227.701 873.673C227.156 874.684 226.884 876.243 226.884 878.349ZM229.965 884.563C230.943 884.563 231.705 884.057 232.25 883.046C232.795 882.02 233.068 880.455 233.068 878.349C233.068 876.562 232.893 875.176 232.543 874.192L227.89 883.482C228.393 884.202 229.085 884.563 229.965 884.563Z" fill="url(#paint23_linear_122_130)" fill-opacity="0.6"/>
<path d="M231.223 908.148H234.304V909.249H226.318V908.148H229.881V896.468L226.485 898.484L225.898 897.549L230.091 894.972H231.223V908.148Z" fill="url(#paint24_linear_122_130)" fill-opacity="0.6"/>
<path d="M231.223 931.899H234.304V933H226.318V931.899H229.881V920.219L226.485 922.235L225.898 921.3L230.091 918.723H231.223V931.899Z" fill="url(#paint25_linear_122_130)" fill-opacity="0.6"/>
<path d="M171.57 657.253C173.065 657.253 174.197 657.884 174.966 659.144C175.748 660.391 176.14 662.206 176.14 664.589C176.14 666.972 175.748 668.794 174.966 670.055C174.197 671.316 173.065 671.946 171.57 671.946C170.088 671.946 168.956 671.316 168.174 670.055C167.391 668.794 167 666.972 167 664.589C167 662.22 167.391 660.405 168.174 659.144C168.956 657.884 170.088 657.253 171.57 657.253ZM168.488 664.589C168.488 666.28 168.642 667.603 168.95 668.559L173.603 659.352C173.114 658.701 172.436 658.375 171.57 658.375C170.606 658.375 169.851 658.888 169.306 659.913C168.761 660.925 168.488 662.483 168.488 664.589ZM171.57 670.803C172.548 670.803 173.31 670.297 173.855 669.286C174.4 668.261 174.672 666.695 174.672 664.589C174.672 662.802 174.498 661.417 174.148 660.433L169.495 669.722C169.998 670.443 170.689 670.803 171.57 670.803Z" fill="url(#paint26_linear_122_130)" fill-opacity="0.6"/>
<path d="M171.57 681.004C173.065 681.004 174.197 681.635 174.966 682.895C175.748 684.142 176.14 685.957 176.14 688.34C176.14 690.723 175.748 692.545 174.966 693.806C174.197 695.067 173.065 695.697 171.57 695.697C170.088 695.697 168.956 695.067 168.174 693.806C167.391 692.545 167 690.723 167 688.34C167 685.971 167.391 684.156 168.174 682.895C168.956 681.635 170.088 681.004 171.57 681.004ZM168.488 688.34C168.488 690.031 168.642 691.354 168.95 692.31L173.603 683.103C173.114 682.452 172.436 682.126 171.57 682.126C170.606 682.126 169.851 682.639 169.306 683.664C168.761 684.676 168.488 686.234 168.488 688.34ZM171.57 694.554C172.548 694.554 173.31 694.049 173.855 693.037C174.4 692.012 174.672 690.446 174.672 688.34C174.672 686.553 174.498 685.168 174.148 684.184L169.495 693.474C169.998 694.194 170.689 694.554 171.57 694.554Z" fill="url(#paint27_linear_122_130)" fill-opacity="0.6"/>
<path d="M172.828 718.139H175.909V719.24H167.922V718.139H171.486V706.459L168.09 708.475L167.503 707.54L171.696 704.963H172.828V718.139Z" fill="url(#paint28_linear_122_130)" fill-opacity="0.6"/>
<path d="M171.57 728.506C173.065 728.506 174.197 729.137 174.966 730.398C175.748 731.644 176.14 733.459 176.14 735.842C176.14 738.225 175.748 740.047 174.966 741.308C174.197 742.569 173.065 743.199 171.57 743.199C170.088 743.199 168.956 742.569 168.174 741.308C167.391 740.047 167 738.225 167 735.842C167 733.473 167.391 731.658 168.174 730.398C168.956 729.137 170.088 728.506 171.57 728.506ZM168.488 735.842C168.488 737.533 168.642 738.856 168.95 739.812L173.603 730.605C173.114 729.954 172.436 729.629 171.57 729.629C170.606 729.629 169.851 730.141 169.306 731.166C168.761 732.178 168.488 733.737 168.488 735.842ZM171.57 742.056C172.548 742.056 173.31 741.551 173.855 740.539C174.4 739.514 174.672 737.948 174.672 735.842C174.672 734.055 174.498 732.67 174.148 731.686L169.495 740.976C169.998 741.696 170.689 742.056 171.57 742.056Z" fill="url(#paint29_linear_122_130)" fill-opacity="0.6"/>
<path d="M172.828 765.641H175.909V766.743H167.922V765.641H171.486V753.962L168.09 755.977L167.503 755.042L171.696 752.465H172.828V765.641Z" fill="url(#paint30_linear_122_130)" fill-opacity="0.6"/>
<path d="M172.828 789.392H175.909V790.494H167.922V789.392H171.486V777.713L168.09 779.728L167.503 778.793L171.696 776.216H172.828V789.392Z" fill="url(#paint31_linear_122_130)" fill-opacity="0.6"/>
<path d="M211.758 623.135H214.839V624.236H206.853V623.135H210.416V611.455L207.02 613.471L206.433 612.536L210.626 609.959H211.758V623.135Z" fill="url(#paint32_linear_122_130)" fill-opacity="0.6"/>
<path d="M210.5 633.502C211.995 633.502 213.127 634.133 213.896 635.393C214.679 636.64 215.07 638.455 215.07 640.838C215.07 643.221 214.679 645.043 213.896 646.304C213.127 647.565 211.995 648.195 210.5 648.195C209.019 648.195 207.887 647.565 207.104 646.304C206.321 645.043 205.93 643.221 205.93 640.838C205.93 638.469 206.321 636.654 207.104 635.393C207.887 634.133 209.019 633.502 210.5 633.502ZM207.419 640.838C207.419 642.529 207.572 643.852 207.88 644.808L212.533 635.601C212.044 634.95 211.366 634.624 210.5 634.624C209.536 634.624 208.781 635.137 208.236 636.162C207.691 637.174 207.419 638.732 207.419 640.838ZM210.5 647.052C211.478 647.052 212.24 646.546 212.785 645.535C213.33 644.51 213.602 642.944 213.602 640.838C213.602 639.051 213.428 637.665 213.078 636.682L208.425 645.971C208.928 646.692 209.62 647.052 210.5 647.052Z" fill="url(#paint33_linear_122_130)" fill-opacity="0.6"/>
<path d="M211.758 670.637H214.839V671.738H206.853V670.637H210.416V658.957L207.02 660.973L206.433 660.038L210.626 657.461H211.758V670.637Z" fill="url(#paint34_linear_122_130)" fill-opacity="0.6"/>
<path d="M211.758 694.388H214.839V695.489H206.853V694.388H210.416V682.708L207.02 684.724L206.433 683.789L210.626 681.212H211.758V694.388Z" fill="url(#paint35_linear_122_130)" fill-opacity="0.6"/>
<path d="M210.5 704.755C211.995 704.755 213.127 705.386 213.896 706.646C214.679 707.893 215.07 709.708 215.07 712.091C215.07 714.474 214.679 716.296 213.896 717.557C213.127 718.818 211.995 719.448 210.5 719.448C209.019 719.448 207.887 718.818 207.104 717.557C206.321 716.296 205.93 714.474 205.93 712.091C205.93 709.722 206.321 707.907 207.104 706.646C207.887 705.386 209.019 704.755 210.5 704.755ZM207.419 712.091C207.419 713.782 207.572 715.105 207.88 716.061L212.533 706.854C212.044 706.203 211.366 705.878 210.5 705.878C209.536 705.878 208.781 706.39 208.236 707.415C207.691 708.427 207.419 709.985 207.419 712.091ZM210.5 718.305C211.478 718.305 212.24 717.8 212.785 716.788C213.33 715.763 213.602 714.197 213.602 712.091C213.602 710.304 213.428 708.919 213.078 707.935L208.425 717.225C208.928 717.945 209.62 718.305 210.5 718.305Z" fill="url(#paint36_linear_122_130)" fill-opacity="0.6"/>
<path d="M211.758 741.89H214.839V742.992H206.853V741.89H210.416V730.21L207.02 732.226L206.433 731.291L210.626 728.714H211.758V741.89Z" fill="url(#paint37_linear_122_130)" fill-opacity="0.6"/>
<path d="M211.758 765.641H214.839V766.743H206.853V765.641H210.416V753.962L207.02 755.977L206.433 755.042L210.626 752.465H211.758V765.641Z" fill="url(#paint38_linear_122_130)" fill-opacity="0.6"/>
<path d="M210.5 776.008C211.995 776.008 213.127 776.639 213.896 777.9C214.679 779.147 215.07 780.962 215.07 783.345C215.07 785.728 214.679 787.549 213.896 788.81C213.127 790.071 211.995 790.701 210.5 790.701C209.019 790.701 207.887 790.071 207.104 788.81C206.321 787.549 205.93 785.728 205.93 783.345C205.93 780.975 206.321 779.16 207.104 777.9C207.887 776.639 209.019 776.008 210.5 776.008ZM207.419 783.345C207.419 785.035 207.572 786.358 207.88 787.314L212.533 778.107C212.044 777.456 211.366 777.131 210.5 777.131C209.536 777.131 208.781 777.643 208.236 778.669C207.691 779.68 207.419 781.239 207.419 783.345ZM210.5 789.558C211.478 789.558 212.24 789.053 212.785 788.041C213.33 787.016 213.602 785.451 213.602 783.345C213.602 781.557 213.428 780.172 213.078 779.188L208.425 788.478C208.928 789.198 209.62 789.558 210.5 789.558Z" fill="url(#paint39_linear_122_130)" fill-opacity="0.6"/>
<path d="M211.758 813.143H214.839V814.245H206.853V813.143H210.416V801.464L207.02 803.48L206.433 802.544L210.626 799.967H211.758V813.143Z" fill="url(#paint40_linear_122_130)" fill-opacity="0.6"/>
<path d="M210.5 823.511C211.995 823.511 213.127 824.141 213.896 825.402C214.679 826.649 215.07 828.464 215.07 830.847C215.07 833.23 214.679 835.052 213.896 836.312C213.127 837.573 211.995 838.204 210.5 838.204C209.019 838.204 207.887 837.573 207.104 836.312C206.321 835.052 205.93 833.23 205.93 830.847C205.93 828.478 206.321 826.663 207.104 825.402C207.887 824.141 209.019 823.511 210.5 823.511ZM207.419 830.847C207.419 832.537 207.572 833.86 207.88 834.816L212.533 825.61C212.044 824.958 211.366 824.633 210.5 824.633C209.536 824.633 208.781 825.145 208.236 826.171C207.691 827.182 207.419 828.741 207.419 830.847ZM210.5 837.061C211.478 837.061 212.24 836.555 212.785 835.543C213.33 834.518 213.602 832.953 213.602 830.847C213.602 829.059 213.428 827.674 213.078 826.69L208.425 835.98C208.928 836.7 209.62 837.061 210.5 837.061Z" fill="url(#paint41_linear_122_130)" fill-opacity="0.6"/>
<path d="M249.43 609.751C250.926 609.751 252.057 610.381 252.826 611.642C253.609 612.889 254 614.704 254 617.087C254 619.47 253.609 621.292 252.826 622.553C252.057 623.814 250.926 624.444 249.43 624.444C247.949 624.444 246.817 623.814 246.034 622.553C245.252 621.292 244.86 619.47 244.86 617.087C244.86 614.718 245.252 612.903 246.034 611.642C246.817 610.381 247.949 609.751 249.43 609.751ZM246.349 617.087C246.349 618.777 246.502 620.101 246.81 621.057L251.464 611.85C250.974 611.199 250.297 610.873 249.43 610.873C248.466 610.873 247.711 611.386 247.166 612.411C246.621 613.423 246.349 614.981 246.349 617.087ZM249.43 623.301C250.408 623.301 251.17 622.795 251.715 621.784C252.26 620.759 252.533 619.193 252.533 617.087C252.533 615.3 252.358 613.914 252.009 612.931L247.355 622.22C247.858 622.941 248.55 623.301 249.43 623.301Z" fill="url(#paint42_linear_122_130)" fill-opacity="0.6"/>
<path d="M250.688 646.886H253.769V647.987H245.783V646.886H249.346V635.206L245.95 637.222L245.363 636.287L249.556 633.71H250.688V646.886Z" fill="url(#paint43_linear_122_130)" fill-opacity="0.6"/>
<path d="M250.688 670.637H253.769V671.738H245.783V670.637H249.346V658.957L245.95 660.973L245.363 660.038L249.556 657.461H250.688V670.637Z" fill="url(#paint44_linear_122_130)" fill-opacity="0.6"/>
<path d="M249.43 681.004C250.926 681.004 252.057 681.635 252.826 682.895C253.609 684.142 254 685.957 254 688.34C254 690.723 253.609 692.545 252.826 693.806C252.057 695.067 250.926 695.697 249.43 695.697C247.949 695.697 246.817 695.067 246.034 693.806C245.252 692.545 244.86 690.723 244.86 688.34C244.86 685.971 245.252 684.156 246.034 682.895C246.817 681.635 247.949 681.004 249.43 681.004ZM246.349 688.34C246.349 690.031 246.502 691.354 246.81 692.31L251.464 683.103C250.974 682.452 250.297 682.126 249.43 682.126C248.466 682.126 247.711 682.639 247.166 683.664C246.621 684.676 246.349 686.234 246.349 688.34ZM249.43 694.554C250.408 694.554 251.17 694.049 251.715 693.037C252.26 692.012 252.533 690.446 252.533 688.34C252.533 686.553 252.358 685.168 252.009 684.184L247.355 693.474C247.858 694.194 248.55 694.554 249.43 694.554Z" fill="url(#paint45_linear_122_130)" fill-opacity="0.6"/>
<path d="M249.43 704.755C250.926 704.755 252.057 705.386 252.826 706.646C253.609 707.893 254 709.708 254 712.091C254 714.474 253.609 716.296 252.826 717.557C252.057 718.818 250.926 719.448 249.43 719.448C247.949 719.448 246.817 718.818 246.034 717.557C245.252 716.296 244.86 714.474 244.86 712.091C244.86 709.722 245.252 707.907 246.034 706.646C246.817 705.386 247.949 704.755 249.43 704.755ZM246.349 712.091C246.349 713.782 246.502 715.105 246.81 716.061L251.464 706.854C250.974 706.203 250.297 705.878 249.43 705.878C248.466 705.878 247.711 706.39 247.166 707.415C246.621 708.427 246.349 709.985 246.349 712.091ZM249.43 718.305C250.408 718.305 251.17 717.8 251.715 716.788C252.26 715.763 252.533 714.197 252.533 712.091C252.533 710.304 252.358 708.919 252.009 707.935L247.355 717.225C247.858 717.945 248.55 718.305 249.43 718.305Z" fill="url(#paint46_linear_122_130)" fill-opacity="0.6"/>
<g opacity="0.6">
<path d="M1077.93 286C1079.36 286 1080.44 286.605 1081.17 287.815C1081.92 289.011 1082.29 290.753 1082.29 293.04C1082.29 295.327 1081.92 297.075 1081.17 298.285C1080.44 299.495 1079.36 300.1 1077.93 300.1C1076.52 300.1 1075.44 299.495 1074.69 298.285C1073.94 297.075 1073.57 295.327 1073.57 293.04C1073.57 290.767 1073.94 289.025 1074.69 287.815C1075.44 286.605 1076.52 286 1077.93 286ZM1074.99 293.04C1074.99 294.662 1075.14 295.932 1075.43 296.849L1079.87 288.014C1079.4 287.389 1078.76 287.077 1077.93 287.077C1077.01 287.077 1076.29 287.569 1075.77 288.553C1075.25 289.523 1074.99 291.019 1074.99 293.04ZM1077.93 299.003C1078.86 299.003 1079.59 298.518 1080.11 297.547C1080.63 296.564 1080.89 295.061 1080.89 293.04C1080.89 291.325 1080.72 289.995 1080.39 289.051L1075.95 297.966C1076.43 298.658 1077.09 299.003 1077.93 299.003Z" fill="url(#paint47_linear_122_130)"/>
<path d="M1079.13 321.637H1082.07V322.694H1074.45V321.637H1077.85V310.428L1074.61 312.363L1074.05 311.465L1078.05 308.992H1079.13V321.637Z" fill="url(#paint48_linear_122_130)"/>
<path d="M1077.93 331.586C1079.36 331.586 1080.44 332.191 1081.17 333.4C1081.92 334.597 1082.29 336.339 1082.29 338.626C1082.29 340.913 1081.92 342.661 1081.17 343.871C1080.44 345.081 1079.36 345.686 1077.93 345.686C1076.52 345.686 1075.44 345.081 1074.69 343.871C1073.94 342.661 1073.57 340.913 1073.57 338.626C1073.57 336.352 1073.94 334.61 1074.69 333.4C1075.44 332.191 1076.52 331.586 1077.93 331.586ZM1074.99 338.626C1074.99 340.248 1075.14 341.518 1075.43 342.435L1079.87 333.6C1079.4 332.975 1078.76 332.663 1077.93 332.663C1077.01 332.663 1076.29 333.155 1075.77 334.138C1075.25 335.109 1074.99 336.605 1074.99 338.626ZM1077.93 344.589C1078.86 344.589 1079.59 344.104 1080.11 343.133C1080.63 342.149 1080.89 340.647 1080.89 338.626C1080.89 336.911 1080.72 335.581 1080.39 334.637L1075.95 343.552C1076.43 344.243 1077.09 344.589 1077.93 344.589Z" fill="url(#paint49_linear_122_130)"/>
<path d="M1079.13 367.222H1082.07V368.279H1074.45V367.222H1077.85V356.014L1074.61 357.948L1074.05 357.051L1078.05 354.578H1079.13V367.222Z" fill="url(#paint50_linear_122_130)"/>
<path d="M1079.13 390.015H1082.07V391.072H1074.45V390.015H1077.85V378.807L1074.61 380.741L1074.05 379.844L1078.05 377.371H1079.13V390.015Z" fill="url(#paint51_linear_122_130)"/>
<path d="M1077.93 399.964C1079.36 399.964 1080.44 400.569 1081.17 401.779C1081.92 402.976 1082.29 404.717 1082.29 407.004C1082.29 409.291 1081.92 411.039 1081.17 412.249C1080.44 413.459 1079.36 414.064 1077.93 414.064C1076.52 414.064 1075.44 413.459 1074.69 412.249C1073.94 411.039 1073.57 409.291 1073.57 407.004C1073.57 404.731 1073.94 402.989 1074.69 401.779C1075.44 400.569 1076.52 399.964 1077.93 399.964ZM1074.99 407.004C1074.99 408.626 1075.14 409.896 1075.43 410.813L1079.87 401.978C1079.4 401.353 1078.76 401.041 1077.93 401.041C1077.01 401.041 1076.29 401.533 1075.77 402.517C1075.25 403.487 1074.99 404.983 1074.99 407.004ZM1077.93 412.967C1078.86 412.967 1079.59 412.482 1080.11 411.511C1080.63 410.528 1080.89 409.025 1080.89 407.004C1080.89 405.289 1080.72 403.959 1080.39 403.015L1075.95 411.93C1076.43 412.622 1077.09 412.967 1077.93 412.967Z" fill="url(#paint52_linear_122_130)"/>
<path d="M1079.13 435.601H1082.07V436.658H1074.45V435.601H1077.85V424.392L1074.61 426.327L1074.05 425.429L1078.05 422.956H1079.13V435.601Z" fill="url(#paint53_linear_122_130)"/>
<path d="M1077.93 445.55C1079.36 445.55 1080.44 446.155 1081.17 447.365C1081.92 448.561 1082.29 450.303 1082.29 452.59C1082.29 454.877 1081.92 456.625 1081.17 457.835C1080.44 459.045 1079.36 459.65 1077.93 459.65C1076.52 459.65 1075.44 459.045 1074.69 457.835C1073.94 456.625 1073.57 454.877 1073.57 452.59C1073.57 450.316 1073.94 448.574 1074.69 447.365C1075.44 446.155 1076.52 445.55 1077.93 445.55ZM1074.99 452.59C1074.99 454.212 1075.14 455.482 1075.43 456.399L1079.87 447.564C1079.4 446.939 1078.76 446.627 1077.93 446.627C1077.01 446.627 1076.29 447.119 1075.77 448.102C1075.25 449.073 1074.99 450.569 1074.99 452.59ZM1077.93 458.553C1078.86 458.553 1079.59 458.068 1080.11 457.097C1080.63 456.113 1080.89 454.611 1080.89 452.59C1080.89 450.875 1080.72 449.545 1080.39 448.601L1075.95 457.516C1076.43 458.207 1077.09 458.553 1077.93 458.553Z" fill="url(#paint54_linear_122_130)"/>
<path d="M1077.93 468.342C1079.36 468.342 1080.44 468.947 1081.17 470.157C1081.92 471.354 1082.29 473.096 1082.29 475.383C1082.29 477.669 1081.92 479.418 1081.17 480.628C1080.44 481.838 1079.36 482.443 1077.93 482.443C1076.52 482.443 1075.44 481.838 1074.69 480.628C1073.94 479.418 1073.57 477.669 1073.57 475.383C1073.57 473.109 1073.94 471.367 1074.69 470.157C1075.44 468.947 1076.52 468.342 1077.93 468.342ZM1074.99 475.383C1074.99 477.005 1075.14 478.274 1075.43 479.192L1079.87 470.357C1079.4 469.732 1078.76 469.419 1077.93 469.419C1077.01 469.419 1076.29 469.911 1075.77 470.895C1075.25 471.866 1074.99 473.362 1074.99 475.383ZM1077.93 481.346C1078.86 481.346 1079.59 480.86 1080.11 479.89C1080.63 478.906 1080.89 477.404 1080.89 475.383C1080.89 473.667 1080.72 472.338 1080.39 471.394L1075.95 480.309C1076.43 481 1077.09 481.346 1077.93 481.346Z" fill="url(#paint55_linear_122_130)"/>
<path d="M1079.13 503.979H1082.07V505.036H1074.45V503.979H1077.85V492.771L1074.61 494.705L1074.05 493.808L1078.05 491.335H1079.13V503.979Z" fill="url(#paint56_linear_122_130)"/>
<path d="M1077.93 513.928C1079.36 513.928 1080.44 514.533 1081.17 515.743C1081.92 516.94 1082.29 518.681 1082.29 520.968C1082.29 523.255 1081.92 525.003 1081.17 526.213C1080.44 527.423 1079.36 528.028 1077.93 528.028C1076.52 528.028 1075.44 527.423 1074.69 526.213C1073.94 525.003 1073.57 523.255 1073.57 520.968C1073.57 518.695 1073.94 516.953 1074.69 515.743C1075.44 514.533 1076.52 513.928 1077.93 513.928ZM1074.99 520.968C1074.99 522.59 1075.14 523.86 1075.43 524.777L1079.87 515.942C1079.4 515.317 1078.76 515.005 1077.93 515.005C1077.01 515.005 1076.29 515.497 1075.77 516.481C1075.25 517.451 1074.99 518.947 1074.99 520.968ZM1077.93 526.931C1078.86 526.931 1079.59 526.446 1080.11 525.475C1080.63 524.492 1080.89 522.989 1080.89 520.968C1080.89 519.253 1080.72 517.923 1080.39 516.979L1075.95 525.894C1076.43 526.586 1077.09 526.931 1077.93 526.931Z" fill="url(#paint57_linear_122_130)"/>
<path d="M1079.13 549.565H1082.07V550.622H1074.45V549.565H1077.85V538.356L1074.61 540.291L1074.05 539.393L1078.05 536.92H1079.13V549.565Z" fill="url(#paint58_linear_122_130)"/>
<path d="M1079.13 572.357H1082.07V573.414H1074.45V572.357H1077.85V561.149L1074.61 563.084L1074.05 562.186L1078.05 559.713H1079.13V572.357Z" fill="url(#paint59_linear_122_130)"/>
<path d="M1115.07 331.586C1116.5 331.586 1117.58 332.191 1118.31 333.4C1119.06 334.597 1119.43 336.339 1119.43 338.626C1119.43 340.913 1119.06 342.661 1118.31 343.871C1117.58 345.081 1116.5 345.686 1115.07 345.686C1113.66 345.686 1112.58 345.081 1111.83 343.871C1111.08 342.661 1110.71 340.913 1110.71 338.626C1110.71 336.352 1111.08 334.61 1111.83 333.4C1112.58 332.191 1113.66 331.586 1115.07 331.586ZM1112.13 338.626C1112.13 340.248 1112.28 341.518 1112.57 342.435L1117.01 333.6C1116.54 332.975 1115.9 332.663 1115.07 332.663C1114.15 332.663 1113.43 333.155 1112.91 334.138C1112.39 335.109 1112.13 336.605 1112.13 338.626ZM1115.07 344.589C1116 344.589 1116.73 344.104 1117.25 343.133C1117.77 342.149 1118.03 340.647 1118.03 338.626C1118.03 336.911 1117.86 335.581 1117.53 334.637L1113.09 343.552C1113.57 344.243 1114.23 344.589 1115.07 344.589Z" fill="url(#paint60_linear_122_130)"/>
<path d="M1116.27 367.222H1119.21V368.279H1111.59V367.222H1114.99V356.014L1111.75 357.948L1111.19 357.051L1115.19 354.578H1116.27V367.222Z" fill="url(#paint61_linear_122_130)"/>
<path d="M1115.07 377.171C1116.5 377.171 1117.58 377.776 1118.31 378.986C1119.06 380.183 1119.43 381.924 1119.43 384.211C1119.43 386.498 1119.06 388.247 1118.31 389.457C1117.58 390.666 1116.5 391.271 1115.07 391.271C1113.66 391.271 1112.58 390.666 1111.83 389.457C1111.08 388.247 1110.71 386.498 1110.71 384.211C1110.71 381.938 1111.08 380.196 1111.83 378.986C1112.58 377.776 1113.66 377.171 1115.07 377.171ZM1112.13 384.211C1112.13 385.833 1112.28 387.103 1112.57 388.021L1117.01 379.186C1116.54 378.561 1115.9 378.248 1115.07 378.248C1114.15 378.248 1113.43 378.74 1112.91 379.724C1112.39 380.695 1112.13 382.19 1112.13 384.211ZM1115.07 390.174C1116 390.174 1116.73 389.689 1117.25 388.719C1117.77 387.735 1118.03 386.232 1118.03 384.211C1118.03 382.496 1117.86 381.167 1117.53 380.223L1113.09 389.137C1113.57 389.829 1114.23 390.174 1115.07 390.174Z" fill="url(#paint62_linear_122_130)"/>
<path d="M1115.07 399.964C1116.5 399.964 1117.58 400.569 1118.31 401.779C1119.06 402.976 1119.43 404.717 1119.43 407.004C1119.43 409.291 1119.06 411.039 1118.31 412.249C1117.58 413.459 1116.5 414.064 1115.07 414.064C1113.66 414.064 1112.58 413.459 1111.83 412.249C1111.08 411.039 1110.71 409.291 1110.71 407.004C1110.71 404.731 1111.08 402.989 1111.83 401.779C1112.58 400.569 1113.66 399.964 1115.07 399.964ZM1112.13 407.004C1112.13 408.626 1112.28 409.896 1112.57 410.813L1117.01 401.978C1116.54 401.353 1115.9 401.041 1115.07 401.041C1114.15 401.041 1113.43 401.533 1112.91 402.517C1112.39 403.487 1112.13 404.983 1112.13 407.004ZM1115.07 412.967C1116 412.967 1116.73 412.482 1117.25 411.511C1117.77 410.528 1118.03 409.025 1118.03 407.004C1118.03 405.289 1117.86 403.959 1117.53 403.015L1113.09 411.93C1113.57 412.622 1114.23 412.967 1115.07 412.967Z" fill="url(#paint63_linear_122_130)"/>
<path d="M1116.27 435.601H1119.21V436.658H1111.59V435.601H1114.99V424.392L1111.75 426.327L1111.19 425.429L1115.19 422.956H1116.27V435.601Z" fill="url(#paint64_linear_122_130)"/>
<path d="M1115.07 445.55C1116.5 445.55 1117.58 446.155 1118.31 447.365C1119.06 448.561 1119.43 450.303 1119.43 452.59C1119.43 454.877 1119.06 456.625 1118.31 457.835C1117.58 459.045 1116.5 459.65 1115.07 459.65C1113.66 459.65 1112.58 459.045 1111.83 457.835C1111.08 456.625 1110.71 454.877 1110.71 452.59C1110.71 450.316 1111.08 448.574 1111.83 447.365C1112.58 446.155 1113.66 445.55 1115.07 445.55ZM1112.13 452.59C1112.13 454.212 1112.28 455.482 1112.57 456.399L1117.01 447.564C1116.54 446.939 1115.9 446.627 1115.07 446.627C1114.15 446.627 1113.43 447.119 1112.91 448.102C1112.39 449.073 1112.13 450.569 1112.13 452.59ZM1115.07 458.553C1116 458.553 1116.73 458.068 1117.25 457.097C1117.77 456.113 1118.03 454.611 1118.03 452.59C1118.03 450.875 1117.86 449.545 1117.53 448.601L1113.09 457.516C1113.57 458.207 1114.23 458.553 1115.07 458.553Z" fill="url(#paint65_linear_122_130)"/>
<path d="M1116.27 481.186H1119.21V482.243H1111.59V481.186H1114.99V469.978L1111.75 471.912L1111.19 471.015L1115.19 468.542H1116.27V481.186Z" fill="url(#paint66_linear_122_130)"/>
<path d="M1115.07 491.135C1116.5 491.135 1117.58 491.74 1118.31 492.95C1119.06 494.147 1119.43 495.888 1119.43 498.175C1119.43 500.462 1119.06 502.211 1118.31 503.421C1117.58 504.63 1116.5 505.235 1115.07 505.235C1113.66 505.235 1112.58 504.63 1111.83 503.421C1111.08 502.211 1110.71 500.462 1110.71 498.175C1110.71 495.902 1111.08 494.16 1111.83 492.95C1112.58 491.74 1113.66 491.135 1115.07 491.135ZM1112.13 498.175C1112.13 499.797 1112.28 501.067 1112.57 501.985L1117.01 493.15C1116.54 492.525 1115.9 492.212 1115.07 492.212C1114.15 492.212 1113.43 492.704 1112.91 493.688C1112.39 494.659 1112.13 496.154 1112.13 498.175ZM1115.07 504.139C1116 504.139 1116.73 503.653 1117.25 502.683C1117.77 501.699 1118.03 500.196 1118.03 498.175C1118.03 496.46 1117.86 495.131 1117.53 494.187L1113.09 503.101C1113.57 503.793 1114.23 504.139 1115.07 504.139Z" fill="url(#paint67_linear_122_130)"/>
<path d="M1115.07 513.928C1116.5 513.928 1117.58 514.533 1118.31 515.743C1119.06 516.94 1119.43 518.681 1119.43 520.968C1119.43 523.255 1119.06 525.003 1118.31 526.213C1117.58 527.423 1116.5 528.028 1115.07 528.028C1113.66 528.028 1112.58 527.423 1111.83 526.213C1111.08 525.003 1110.71 523.255 1110.71 520.968C1110.71 518.695 1111.08 516.953 1111.83 515.743C1112.58 514.533 1113.66 513.928 1115.07 513.928ZM1112.13 520.968C1112.13 522.59 1112.28 523.86 1112.57 524.777L1117.01 515.942C1116.54 515.317 1115.9 515.005 1115.07 515.005C1114.15 515.005 1113.43 515.497 1112.91 516.481C1112.39 517.451 1112.13 518.947 1112.13 520.968ZM1115.07 526.931C1116 526.931 1116.73 526.446 1117.25 525.475C1117.77 524.492 1118.03 522.989 1118.03 520.968C1118.03 519.253 1117.86 517.923 1117.53 516.979L1113.09 525.894C1113.57 526.586 1114.23 526.931 1115.07 526.931Z" fill="url(#paint68_linear_122_130)"/>
<path d="M1116.27 549.565H1119.21V550.622H1111.59V549.565H1114.99V538.356L1111.75 540.291L1111.19 539.393L1115.19 536.92H1116.27V549.565Z" fill="url(#paint69_linear_122_130)"/>
<path d="M1115.07 559.514C1116.5 559.514 1117.58 560.119 1118.31 561.329C1119.06 562.525 1119.43 564.267 1119.43 566.554C1119.43 568.841 1119.06 570.589 1118.31 571.799C1117.58 573.009 1116.5 573.614 1115.07 573.614C1113.66 573.614 1112.58 573.009 1111.83 571.799C1111.08 570.589 1110.71 568.841 1110.71 566.554C1110.71 564.28 1111.08 562.538 1111.83 561.329C1112.58 560.119 1113.66 559.514 1115.07 559.514ZM1112.13 566.554C1112.13 568.176 1112.28 569.446 1112.57 570.363L1117.01 561.528C1116.54 560.903 1115.9 560.591 1115.07 560.591C1114.15 560.591 1113.43 561.083 1112.91 562.066C1112.39 563.037 1112.13 564.533 1112.13 566.554ZM1115.07 572.517C1116 572.517 1116.73 572.032 1117.25 571.061C1117.77 570.077 1118.03 568.575 1118.03 566.554C1118.03 564.839 1117.86 563.509 1117.53 562.565L1113.09 571.48C1113.57 572.171 1114.23 572.517 1115.07 572.517Z" fill="url(#paint70_linear_122_130)"/>
<path d="M1116.27 595.15H1119.21V596.207H1111.59V595.15H1114.99V583.942L1111.75 585.876L1111.19 584.979L1115.19 582.506H1116.27V595.15Z" fill="url(#paint71_linear_122_130)"/>
<path d="M1116.27 617.943H1119.21V619H1111.59V617.943H1114.99V606.735L1111.75 608.669L1111.19 607.772L1115.19 605.299H1116.27V617.943Z" fill="url(#paint72_linear_122_130)"/>
<path d="M1059.36 354.378C1060.79 354.378 1061.87 354.983 1062.6 356.193C1063.35 357.39 1063.72 359.132 1063.72 361.419C1063.72 363.705 1063.35 365.454 1062.6 366.664C1061.87 367.874 1060.79 368.479 1059.36 368.479C1057.95 368.479 1056.87 367.874 1056.12 366.664C1055.37 365.454 1055 363.705 1055 361.419C1055 359.145 1055.37 357.403 1056.12 356.193C1056.87 354.983 1057.95 354.378 1059.36 354.378ZM1056.42 361.419C1056.42 363.041 1056.57 364.31 1056.86 365.228L1061.3 356.393C1060.83 355.768 1060.19 355.455 1059.36 355.455C1058.44 355.455 1057.72 355.947 1057.2 356.931C1056.68 357.902 1056.42 359.398 1056.42 361.419ZM1059.36 367.382C1060.29 367.382 1061.02 366.896 1061.54 365.926C1062.06 364.942 1062.32 363.44 1062.32 361.419C1062.32 359.703 1062.15 358.374 1061.82 357.43L1057.38 366.345C1057.86 367.036 1058.52 367.382 1059.36 367.382Z" fill="url(#paint73_linear_122_130)"/>
<path d="M1059.36 377.171C1060.79 377.171 1061.87 377.776 1062.6 378.986C1063.35 380.183 1063.72 381.924 1063.72 384.211C1063.72 386.498 1063.35 388.247 1062.6 389.457C1061.87 390.666 1060.79 391.271 1059.36 391.271C1057.95 391.271 1056.87 390.666 1056.12 389.457C1055.37 388.247 1055 386.498 1055 384.211C1055 381.938 1055.37 380.196 1056.12 378.986C1056.87 377.776 1057.95 377.171 1059.36 377.171ZM1056.42 384.211C1056.42 385.833 1056.57 387.103 1056.86 388.021L1061.3 379.186C1060.83 378.561 1060.19 378.248 1059.36 378.248C1058.44 378.248 1057.72 378.74 1057.2 379.724C1056.68 380.695 1056.42 382.19 1056.42 384.211ZM1059.36 390.174C1060.29 390.174 1061.02 389.689 1061.54 388.719C1062.06 387.735 1062.32 386.232 1062.32 384.211C1062.32 382.496 1062.15 381.167 1061.82 380.223L1057.38 389.137C1057.86 389.829 1058.52 390.174 1059.36 390.174Z" fill="url(#paint74_linear_122_130)"/>
<path d="M1060.56 412.808H1063.5V413.865H1055.88V412.808H1059.28V401.599L1056.04 403.534L1055.48 402.636L1059.48 400.163H1060.56V412.808Z" fill="url(#paint75_linear_122_130)"/>
<path d="M1059.36 422.757C1060.79 422.757 1061.87 423.362 1062.6 424.572C1063.35 425.768 1063.72 427.51 1063.72 429.797C1063.72 432.084 1063.35 433.832 1062.6 435.042C1061.87 436.252 1060.79 436.857 1059.36 436.857C1057.95 436.857 1056.87 436.252 1056.12 435.042C1055.37 433.832 1055 432.084 1055 429.797C1055 427.523 1055.37 425.782 1056.12 424.572C1056.87 423.362 1057.95 422.757 1059.36 422.757ZM1056.42 429.797C1056.42 431.419 1056.57 432.689 1056.86 433.606L1061.3 424.771C1060.83 424.146 1060.19 423.834 1059.36 423.834C1058.44 423.834 1057.72 424.326 1057.2 425.31C1056.68 426.28 1056.42 427.776 1056.42 429.797ZM1059.36 435.76C1060.29 435.76 1061.02 435.275 1061.54 434.304C1062.06 433.32 1062.32 431.818 1062.32 429.797C1062.32 428.082 1062.15 426.752 1061.82 425.808L1057.38 434.723C1057.86 435.414 1058.52 435.76 1059.36 435.76Z" fill="url(#paint76_linear_122_130)"/>
<path d="M1060.56 458.393H1063.5V459.45H1055.88V458.393H1059.28V447.185L1056.04 449.12L1055.48 448.222L1059.48 445.749H1060.56V458.393Z" fill="url(#paint77_linear_122_130)"/>
<path d="M1060.56 481.186H1063.5V482.243H1055.88V481.186H1059.28V469.978L1056.04 471.912L1055.48 471.015L1059.48 468.542H1060.56V481.186Z" fill="url(#paint78_linear_122_130)"/>
<path d="M1097.7 321.637H1100.64V322.694H1093.02V321.637H1096.42V310.428L1093.18 312.363L1092.62 311.465L1096.62 308.992H1097.7V321.637Z" fill="url(#paint79_linear_122_130)"/>
<path d="M1096.5 331.586C1097.93 331.586 1099.01 332.191 1099.74 333.4C1100.49 334.597 1100.86 336.339 1100.86 338.626C1100.86 340.913 1100.49 342.661 1099.74 343.871C1099.01 345.081 1097.93 345.686 1096.5 345.686C1095.09 345.686 1094.01 345.081 1093.26 343.871C1092.51 342.661 1092.14 340.913 1092.14 338.626C1092.14 336.352 1092.51 334.61 1093.26 333.4C1094.01 332.191 1095.09 331.586 1096.5 331.586ZM1093.56 338.626C1093.56 340.248 1093.71 341.518 1094 342.435L1098.44 333.6C1097.97 332.975 1097.33 332.663 1096.5 332.663C1095.58 332.663 1094.86 333.155 1094.34 334.138C1093.82 335.109 1093.56 336.605 1093.56 338.626ZM1096.5 344.589C1097.43 344.589 1098.16 344.104 1098.68 343.133C1099.2 342.149 1099.46 340.647 1099.46 338.626C1099.46 336.911 1099.29 335.581 1098.96 334.637L1094.52 343.552C1095 344.243 1095.66 344.589 1096.5 344.589Z" fill="url(#paint80_linear_122_130)"/>
<path d="M1097.7 367.222H1100.64V368.279H1093.02V367.222H1096.42V356.014L1093.18 357.948L1092.62 357.051L1096.62 354.578H1097.7V367.222Z" fill="url(#paint81_linear_122_130)"/>
<path d="M1097.7 390.015H1100.64V391.072H1093.02V390.015H1096.42V378.807L1093.18 380.741L1092.62 379.844L1096.62 377.371H1097.7V390.015Z" fill="url(#paint82_linear_122_130)"/>
<path d="M1096.5 399.964C1097.93 399.964 1099.01 400.569 1099.74 401.779C1100.49 402.976 1100.86 404.717 1100.86 407.004C1100.86 409.291 1100.49 411.039 1099.74 412.249C1099.01 413.459 1097.93 414.064 1096.5 414.064C1095.09 414.064 1094.01 413.459 1093.26 412.249C1092.51 411.039 1092.14 409.291 1092.14 407.004C1092.14 404.731 1092.51 402.989 1093.26 401.779C1094.01 400.569 1095.09 399.964 1096.5 399.964ZM1093.56 407.004C1093.56 408.626 1093.71 409.896 1094 410.813L1098.44 401.978C1097.97 401.353 1097.33 401.041 1096.5 401.041C1095.58 401.041 1094.86 401.533 1094.34 402.517C1093.82 403.487 1093.56 404.983 1093.56 407.004ZM1096.5 412.967C1097.43 412.967 1098.16 412.482 1098.68 411.511C1099.2 410.528 1099.46 409.025 1099.46 407.004C1099.46 405.289 1099.29 403.959 1098.96 403.015L1094.52 411.93C1095 412.622 1095.66 412.967 1096.5 412.967Z" fill="url(#paint83_linear_122_130)"/>
<path d="M1097.7 435.601H1100.64V436.658H1093.02V435.601H1096.42V424.392L1093.18 426.327L1092.62 425.429L1096.62 422.956H1097.7V435.601Z" fill="url(#paint84_linear_122_130)"/>
<path d="M1097.7 458.393H1100.64V459.45H1093.02V458.393H1096.42V447.185L1093.18 449.12L1092.62 448.222L1096.62 445.749H1097.7V458.393Z" fill="url(#paint85_linear_122_130)"/>
<path d="M1096.5 468.342C1097.93 468.342 1099.01 468.947 1099.74 470.157C1100.49 471.354 1100.86 473.096 1100.86 475.383C1100.86 477.669 1100.49 479.418 1099.74 480.628C1099.01 481.838 1097.93 482.443 1096.5 482.443C1095.09 482.443 1094.01 481.838 1093.26 480.628C1092.51 479.418 1092.14 477.669 1092.14 475.383C1092.14 473.109 1092.51 471.367 1093.26 470.157C1094.01 468.947 1095.09 468.342 1096.5 468.342ZM1093.56 475.383C1093.56 477.005 1093.71 478.274 1094 479.192L1098.44 470.357C1097.97 469.732 1097.33 469.419 1096.5 469.419C1095.58 469.419 1094.86 469.911 1094.34 470.895C1093.82 471.866 1093.56 473.362 1093.56 475.383ZM1096.5 481.346C1097.43 481.346 1098.16 480.86 1098.68 479.89C1099.2 478.906 1099.46 477.404 1099.46 475.383C1099.46 473.667 1099.29 472.338 1098.96 471.394L1094.52 480.309C1095 481 1095.66 481.346 1096.5 481.346Z" fill="url(#paint86_linear_122_130)"/>
<path d="M1097.7 503.979H1100.64V505.036H1093.02V503.979H1096.42V492.771L1093.18 494.705L1092.62 493.808L1096.62 491.335H1097.7V503.979Z" fill="url(#paint87_linear_122_130)"/>
<path d="M1096.5 513.928C1097.93 513.928 1099.01 514.533 1099.74 515.743C1100.49 516.94 1100.86 518.681 1100.86 520.968C1100.86 523.255 1100.49 525.003 1099.74 526.213C1099.01 527.423 1097.93 528.028 1096.5 528.028C1095.09 528.028 1094.01 527.423 1093.26 526.213C1092.51 525.003 1092.14 523.255 1092.14 520.968C1092.14 518.695 1092.51 516.953 1093.26 515.743C1094.01 514.533 1095.09 513.928 1096.5 513.928ZM1093.56 520.968C1093.56 522.59 1093.71 523.86 1094 524.777L1098.44 515.942C1097.97 515.317 1097.33 515.005 1096.5 515.005C1095.58 515.005 1094.86 515.497 1094.34 516.481C1093.82 517.451 1093.56 518.947 1093.56 520.968ZM1096.5 526.931C1097.43 526.931 1098.16 526.446 1098.68 525.475C1099.2 524.492 1099.46 522.989 1099.46 520.968C1099.46 519.253 1099.29 517.923 1098.96 516.979L1094.52 525.894C1095 526.586 1095.66 526.931 1096.5 526.931Z" fill="url(#paint88_linear_122_130)"/>
<path d="M1133.64 308.793C1135.07 308.793 1136.15 309.398 1136.88 310.608C1137.63 311.804 1138 313.546 1138 315.833C1138 318.12 1137.63 319.868 1136.88 321.078C1136.15 322.288 1135.07 322.893 1133.64 322.893C1132.23 322.893 1131.15 322.288 1130.4 321.078C1129.65 319.868 1129.28 318.12 1129.28 315.833C1129.28 313.559 1129.65 311.818 1130.4 310.608C1131.15 309.398 1132.23 308.793 1133.64 308.793ZM1130.7 315.833C1130.7 317.455 1130.85 318.725 1131.14 319.642L1135.58 310.807C1135.11 310.182 1134.47 309.87 1133.64 309.87C1132.72 309.87 1132 310.362 1131.48 311.346C1130.96 312.316 1130.7 313.812 1130.7 315.833ZM1133.64 321.796C1134.57 321.796 1135.3 321.311 1135.82 320.34C1136.34 319.356 1136.6 317.854 1136.6 315.833C1136.6 314.118 1136.43 312.788 1136.1 311.844L1131.66 320.759C1132.14 321.45 1132.8 321.796 1133.64 321.796Z" fill="url(#paint89_linear_122_130)"/>
<path d="M1134.84 344.429H1137.78V345.486H1130.16V344.429H1133.56V333.221L1130.32 335.156L1129.76 334.258L1133.76 331.785H1134.84V344.429Z" fill="url(#paint90_linear_122_130)"/>
<path d="M1134.84 367.222H1137.78V368.279H1130.16V367.222H1133.56V356.014L1130.32 357.948L1129.76 357.051L1133.76 354.578H1134.84V367.222Z" fill="url(#paint91_linear_122_130)"/>
<path d="M1133.64 377.171C1135.07 377.171 1136.15 377.776 1136.88 378.986C1137.63 380.183 1138 381.924 1138 384.211C1138 386.498 1137.63 388.247 1136.88 389.457C1136.15 390.666 1135.07 391.271 1133.64 391.271C1132.23 391.271 1131.15 390.666 1130.4 389.457C1129.65 388.247 1129.28 386.498 1129.28 384.211C1129.28 381.938 1129.65 380.196 1130.4 378.986C1131.15 377.776 1132.23 377.171 1133.64 377.171ZM1130.7 384.211C1130.7 385.833 1130.85 387.103 1131.14 388.021L1135.58 379.186C1135.11 378.561 1134.47 378.248 1133.64 378.248C1132.72 378.248 1132 378.74 1131.48 379.724C1130.96 380.695 1130.7 382.19 1130.7 384.211ZM1133.64 390.174C1134.57 390.174 1135.3 389.689 1135.82 388.719C1136.34 387.735 1136.6 386.232 1136.6 384.211C1136.6 382.496 1136.43 381.167 1136.1 380.223L1131.66 389.137C1132.14 389.829 1132.8 390.174 1133.64 390.174Z" fill="url(#paint92_linear_122_130)"/>
<path d="M1133.64 399.964C1135.07 399.964 1136.15 400.569 1136.88 401.779C1137.63 402.976 1138 404.717 1138 407.004C1138 409.291 1137.63 411.039 1136.88 412.249C1136.15 413.459 1135.07 414.064 1133.64 414.064C1132.23 414.064 1131.15 413.459 1130.4 412.249C1129.65 411.039 1129.28 409.291 1129.28 407.004C1129.28 404.731 1129.65 402.989 1130.4 401.779C1131.15 400.569 1132.23 399.964 1133.64 399.964ZM1130.7 407.004C1130.7 408.626 1130.85 409.896 1131.14 410.813L1135.58 401.978C1135.11 401.353 1134.47 401.041 1133.64 401.041C1132.72 401.041 1132 401.533 1131.48 402.517C1130.96 403.487 1130.7 404.983 1130.7 407.004ZM1133.64 412.967C1134.57 412.967 1135.3 412.482 1135.82 411.511C1136.34 410.528 1136.6 409.025 1136.6 407.004C1136.6 405.289 1136.43 403.959 1136.1 403.015L1131.66 411.93C1132.14 412.622 1132.8 412.967 1133.64 412.967Z" fill="url(#paint93_linear_122_130)"/>
</g>
</g>
<defs>
<filter id="filter0_f_122_130" x="-400.19" y="-400.19" width="2141.38" height="1500.38" filterUnits="userSpaceOnUse" color-interpolation-filters="sRGB">
<feFlood flood-opacity="0" result="BackgroundImageFix"/>
<feBlend mode="normal" in="SourceGraphic" in2="BackgroundImageFix" result="shape"/>
<feGaussianBlur stdDeviation="200.095" result="effect1_foregroundBlur_122_130"/>
</filter>
<linearGradient id="paint0_linear_122_130" x1="210.5" y1="586" x2="210.5" y2="897.381" gradientUnits="userSpaceOnUse">
<stop stop-color="#F7DD43"/>
<stop offset="1" stop-color="#F7DD43" stop-opacity="0"/>
</linearGradient>
<linearGradient id="paint1_linear_122_130" x1="210.5" y1="586" x2="210.5" y2="897.381" gradientUnits="userSpaceOnUse">
<stop stop-color="#F7DD43"/>
<stop offset="1" stop-color="#F7DD43" stop-opacity="0"/>
</linearGradient>
<linearGradient id="paint2_linear_122_130" x1="210.5" y1="586" x2="210.5" y2="897.381" gradientUnits="userSpaceOnUse">
<stop stop-color="#F7DD43"/>
<stop offset="1" stop-color="#F7DD43" stop-opacity="0"/>
</linearGradient>
<linearGradient id="paint3_linear_122_130" x1="210.5" y1="586" x2="210.5" y2="897.381" gradientUnits="userSpaceOnUse">
<stop stop-color="#F7DD43"/>
<stop offset="1" stop-color="#F7DD43" stop-opacity="0"/>
</linearGradient>
<linearGradient id="paint4_linear_122_130" x1="210.5" y1="586" x2="210.5" y2="897.381" gradientUnits="userSpaceOnUse">
<stop stop-color="#F7DD43"/>
<stop offset="1" stop-color="#F7DD43" stop-opacity="0"/>
</linearGradient>
<linearGradient id="paint5_linear_122_130" x1="210.5" y1="586" x2="210.5" y2="897.381" gradientUnits="userSpaceOnUse">
<stop stop-color="#F7DD43"/>
<stop offset="1" stop-color="#F7DD43" stop-opacity="0"/>
</linearGradient>
<linearGradient id="paint6_linear_122_130" x1="210.5" y1="586" x2="210.5" y2="897.381" gradientUnits="userSpaceOnUse">
<stop stop-color="#F7DD43"/>
<stop offset="1" stop-color="#F7DD43" stop-opacity="0"/>
</linearGradient>
<linearGradient id="paint7_linear_122_130" x1="210.5" y1="586" x2="210.5" y2="897.381" gradientUnits="userSpaceOnUse">
<stop stop-color="#F7DD43"/>
<stop offset="1" stop-color="#F7DD43" stop-opacity="0"/>
</linearGradient>
<linearGradient id="paint8_linear_122_130" x1="210.5" y1="586" x2="210.5" y2="897.381" gradientUnits="userSpaceOnUse">
<stop stop-color="#F7DD43"/>
<stop offset="1" stop-color="#F7DD43" stop-opacity="0"/>
</linearGradient>
<linearGradient id="paint9_linear_122_130" x1="210.5" y1="586" x2="210.5" y2="897.381" gradientUnits="userSpaceOnUse">
<stop stop-color="#F7DD43"/>
<stop offset="1" stop-color="#F7DD43" stop-opacity="0"/>
</linearGradient>
<linearGradient id="paint10_linear_122_130" x1="210.5" y1="586" x2="210.5" y2="897.381" gradientUnits="userSpaceOnUse">
<stop stop-color="#F7DD43"/>
<stop offset="1" stop-color="#F7DD43" stop-opacity="0"/>
</linearGradient>
<linearGradient id="paint11_linear_122_130" x1="210.5" y1="586" x2="210.5" y2="897.381" gradientUnits="userSpaceOnUse">
<stop stop-color="#F7DD43"/>
<stop offset="1" stop-color="#F7DD43" stop-opacity="0"/>
</linearGradient>
<linearGradient id="paint12_linear_122_130" x1="210.5" y1="586" x2="210.5" y2="897.381" gradientUnits="userSpaceOnUse">
<stop stop-color="#F7DD43"/>
<stop offset="1" stop-color="#F7DD43" stop-opacity="0"/>
</linearGradient>
<linearGradient id="paint13_linear_122_130" x1="210.5" y1="586" x2="210.5" y2="897.381" gradientUnits="userSpaceOnUse">
<stop stop-color="#F7DD43"/>
<stop offset="1" stop-color="#F7DD43" stop-opacity="0"/>
</linearGradient>
<linearGradient id="paint14_linear_122_130" x1="210.5" y1="586" x2="210.5" y2="897.381" gradientUnits="userSpaceOnUse">
<stop stop-color="#F7DD43"/>
<stop offset="1" stop-color="#F7DD43" stop-opacity="0"/>
</linearGradient>
<linearGradient id="paint15_linear_122_130" x1="210.5" y1="586" x2="210.5" y2="897.381" gradientUnits="userSpaceOnUse">
<stop stop-color="#F7DD43"/>
<stop offset="1" stop-color="#F7DD43" stop-opacity="0"/>
</linearGradient>
<linearGradient id="paint16_linear_122_130" x1="210.5" y1="586" x2="210.5" y2="897.381" gradientUnits="userSpaceOnUse">
<stop stop-color="#F7DD43"/>
<stop offset="1" stop-color="#F7DD43" stop-opacity="0"/>
</linearGradient>
<linearGradient id="paint17_linear_122_130" x1="210.5" y1="586" x2="210.5" y2="897.381" gradientUnits="userSpaceOnUse">
<stop stop-color="#F7DD43"/>
<stop offset="1" stop-color="#F7DD43" stop-opacity="0"/>
</linearGradient>
<linearGradient id="paint18_linear_122_130" x1="210.5" y1="586" x2="210.5" y2="897.381" gradientUnits="userSpaceOnUse">
<stop stop-color="#F7DD43"/>
<stop offset="1" stop-color="#F7DD43" stop-opacity="0"/>
</linearGradient>
<linearGradient id="paint19_linear_122_130" x1="210.5" y1="586" x2="210.5" y2="897.381" gradientUnits="userSpaceOnUse">
<stop stop-color="#F7DD43"/>
<stop offset="1" stop-color="#F7DD43" stop-opacity="0"/>
</linearGradient>
<linearGradient id="paint20_linear_122_130" x1="210.5" y1="586" x2="210.5" y2="897.381" gradientUnits="userSpaceOnUse">
<stop stop-color="#F7DD43"/>
<stop offset="1" stop-color="#F7DD43" stop-opacity="0"/>
</linearGradient>
<linearGradient id="paint21_linear_122_130" x1="210.5" y1="586" x2="210.5" y2="897.381" gradientUnits="userSpaceOnUse">
<stop stop-color="#F7DD43"/>
<stop offset="1" stop-color="#F7DD43" stop-opacity="0"/>
</linearGradient>
<linearGradient id="paint22_linear_122_130" x1="210.5" y1="586" x2="210.5" y2="897.381" gradientUnits="userSpaceOnUse">
<stop stop-color="#F7DD43"/>
<stop offset="1" stop-color="#F7DD43" stop-opacity="0"/>
</linearGradient>
<linearGradient id="paint23_linear_122_130" x1="210.5" y1="586" x2="210.5" y2="897.381" gradientUnits="userSpaceOnUse">
<stop stop-color="#F7DD43"/>
<stop offset="1" stop-color="#F7DD43" stop-opacity="0"/>
</linearGradient>
<linearGradient id="paint24_linear_122_130" x1="210.5" y1="586" x2="210.5" y2="897.381" gradientUnits="userSpaceOnUse">
<stop stop-color="#F7DD43"/>
<stop offset="1" stop-color="#F7DD43" stop-opacity="0"/>
</linearGradient>
<linearGradient id="paint25_linear_122_130" x1="210.5" y1="586" x2="210.5" y2="897.381" gradientUnits="userSpaceOnUse">
<stop stop-color="#F7DD43"/>
<stop offset="1" stop-color="#F7DD43" stop-opacity="0"/>
</linearGradient>
<linearGradient id="paint26_linear_122_130" x1="210.5" y1="586" x2="210.5" y2="897.381" gradientUnits="userSpaceOnUse">
<stop stop-color="#F7DD43"/>
<stop offset="1" stop-color="#F7DD43" stop-opacity="0"/>
</linearGradient>
<linearGradient id="paint27_linear_122_130" x1="210.5" y1="586" x2="210.5" y2="897.381" gradientUnits="userSpaceOnUse">
<stop stop-color="#F7DD43"/>
<stop offset="1" stop-color="#F7DD43" stop-opacity="0"/>
</linearGradient>
<linearGradient id="paint28_linear_122_130" x1="210.5" y1="586" x2="210.5" y2="897.381" gradientUnits="userSpaceOnUse">
<stop stop-color="#F7DD43"/>
<stop offset="1" stop-color="#F7DD43" stop-opacity="0"/>
</linearGradient>
<linearGradient id="paint29_linear_122_130" x1="210.5" y1="586" x2="210.5" y2="897.381" gradientUnits="userSpaceOnUse">
<stop stop-color="#F7DD43"/>
<stop offset="1" stop-color="#F7DD43" stop-opacity="0"/>
</linearGradient>
<linearGradient id="paint30_linear_122_130" x1="210.5" y1="586" x2="210.5" y2="897.381" gradientUnits="userSpaceOnUse">
<stop stop-color="#F7DD43"/>
<stop offset="1" stop-color="#F7DD43" stop-opacity="0"/>
</linearGradient>
<linearGradient id="paint31_linear_122_130" x1="210.5" y1="586" x2="210.5" y2="897.381" gradientUnits="userSpaceOnUse">
<stop stop-color="#F7DD43"/>
<stop offset="1" stop-color="#F7DD43" stop-opacity="0"/>
</linearGradient>
<linearGradient id="paint32_linear_122_130" x1="210.5" y1="586" x2="210.5" y2="897.381" gradientUnits="userSpaceOnUse">
<stop stop-color="#F7DD43"/>
<stop offset="1" stop-color="#F7DD43" stop-opacity="0"/>
</linearGradient>
<linearGradient id="paint33_linear_122_130" x1="210.5" y1="586" x2="210.5" y2="897.381" gradientUnits="userSpaceOnUse">
<stop stop-color="#F7DD43"/>
<stop offset="1" stop-color="#F7DD43" stop-opacity="0"/>
</linearGradient>
<linearGradient id="paint34_linear_122_130" x1="210.5" y1="586" x2="210.5" y2="897.381" gradientUnits="userSpaceOnUse">
<stop stop-color="#F7DD43"/>
<stop offset="1" stop-color="#F7DD43" stop-opacity="0"/>
</linearGradient>
<linearGradient id="paint35_linear_122_130" x1="210.5" y1="586" x2="210.5" y2="897.381" gradientUnits="userSpaceOnUse">
<stop stop-color="#F7DD43"/>
<stop offset="1" stop-color="#F7DD43" stop-opacity="0"/>
</linearGradient>
<linearGradient id="paint36_linear_122_130" x1="210.5" y1="586" x2="210.5" y2="897.381" gradientUnits="userSpaceOnUse">
<stop stop-color="#F7DD43"/>
<stop offset="1" stop-color="#F7DD43" stop-opacity="0"/>
</linearGradient>
<linearGradient id="paint37_linear_122_130" x1="210.5" y1="586" x2="210.5" y2="897.381" gradientUnits="userSpaceOnUse">
<stop stop-color="#F7DD43"/>
<stop offset="1" stop-color="#F7DD43" stop-opacity="0"/>
</linearGradient>
<linearGradient id="paint38_linear_122_130" x1="210.5" y1="586" x2="210.5" y2="897.381" gradientUnits="userSpaceOnUse">
<stop stop-color="#F7DD43"/>
<stop offset="1" stop-color="#F7DD43" stop-opacity="0"/>
</linearGradient>
<linearGradient id="paint39_linear_122_130" x1="210.5" y1="586" x2="210.5" y2="897.381" gradientUnits="userSpaceOnUse">
<stop stop-color="#F7DD43"/>
<stop offset="1" stop-color="#F7DD43" stop-opacity="0"/>
</linearGradient>
<linearGradient id="paint40_linear_122_130" x1="210.5" y1="586" x2="210.5" y2="897.381" gradientUnits="userSpaceOnUse">
<stop stop-color="#F7DD43"/>
<stop offset="1" stop-color="#F7DD43" stop-opacity="0"/>
</linearGradient>
<linearGradient id="paint41_linear_122_130" x1="210.5" y1="586" x2="210.5" y2="897.381" gradientUnits="userSpaceOnUse">
<stop stop-color="#F7DD43"/>
<stop offset="1" stop-color="#F7DD43" stop-opacity="0"/>
</linearGradient>
<linearGradient id="paint42_linear_122_130" x1="210.5" y1="586" x2="210.5" y2="897.381" gradientUnits="userSpaceOnUse">
<stop stop-color="#F7DD43"/>
<stop offset="1" stop-color="#F7DD43" stop-opacity="0"/>
</linearGradient>
<linearGradient id="paint43_linear_122_130" x1="210.5" y1="586" x2="210.5" y2="897.381" gradientUnits="userSpaceOnUse">
<stop stop-color="#F7DD43"/>
<stop offset="1" stop-color="#F7DD43" stop-opacity="0"/>
</linearGradient>
<linearGradient id="paint44_linear_122_130" x1="210.5" y1="586" x2="210.5" y2="897.381" gradientUnits="userSpaceOnUse">
<stop stop-color="#F7DD43"/>
<stop offset="1" stop-color="#F7DD43" stop-opacity="0"/>
</linearGradient>
<linearGradient id="paint45_linear_122_130" x1="210.5" y1="586" x2="210.5" y2="897.381" gradientUnits="userSpaceOnUse">
<stop stop-color="#F7DD43"/>
<stop offset="1" stop-color="#F7DD43" stop-opacity="0"/>
</linearGradient>
<linearGradient id="paint46_linear_122_130" x1="210.5" y1="586" x2="210.5" y2="897.381" gradientUnits="userSpaceOnUse">
<stop stop-color="#F7DD43"/>
<stop offset="1" stop-color="#F7DD43" stop-opacity="0"/>
</linearGradient>
<linearGradient id="paint47_linear_122_130" x1="1096.5" y1="286" x2="1096.5" y2="584.818" gradientUnits="userSpaceOnUse">
<stop stop-color="#F7DD43"/>
<stop offset="1" stop-color="#F7DD43" stop-opacity="0"/>
</linearGradient>
<linearGradient id="paint48_linear_122_130" x1="1096.5" y1="286" x2="1096.5" y2="584.818" gradientUnits="userSpaceOnUse">
<stop stop-color="#F7DD43"/>
<stop offset="1" stop-color="#F7DD43" stop-opacity="0"/>
</linearGradient>
<linearGradient id="paint49_linear_122_130" x1="1096.5" y1="286" x2="1096.5" y2="584.818" gradientUnits="userSpaceOnUse">
<stop stop-color="#F7DD43"/>
<stop offset="1" stop-color="#F7DD43" stop-opacity="0"/>
</linearGradient>
<linearGradient id="paint50_linear_122_130" x1="1096.5" y1="286" x2="1096.5" y2="584.818" gradientUnits="userSpaceOnUse">
<stop stop-color="#F7DD43"/>
<stop offset="1" stop-color="#F7DD43" stop-opacity="0"/>
</linearGradient>
<linearGradient id="paint51_linear_122_130" x1="1096.5" y1="286" x2="1096.5" y2="584.818" gradientUnits="userSpaceOnUse">
<stop stop-color="#F7DD43"/>
<stop offset="1" stop-color="#F7DD43" stop-opacity="0"/>
</linearGradient>
<linearGradient id="paint52_linear_122_130" x1="1096.5" y1="286" x2="1096.5" y2="584.818" gradientUnits="userSpaceOnUse">
<stop stop-color="#F7DD43"/>
<stop offset="1" stop-color="#F7DD43" stop-opacity="0"/>
</linearGradient>
<linearGradient id="paint53_linear_122_130" x1="1096.5" y1="286" x2="1096.5" y2="584.818" gradientUnits="userSpaceOnUse">
<stop stop-color="#F7DD43"/>
<stop offset="1" stop-color="#F7DD43" stop-opacity="0"/>
</linearGradient>
<linearGradient id="paint54_linear_122_130" x1="1096.5" y1="286" x2="1096.5" y2="584.818" gradientUnits="userSpaceOnUse">
<stop stop-color="#F7DD43"/>
<stop offset="1" stop-color="#F7DD43" stop-opacity="0"/>
</linearGradient>
<linearGradient id="paint55_linear_122_130" x1="1096.5" y1="286" x2="1096.5" y2="584.818" gradientUnits="userSpaceOnUse">
<stop stop-color="#F7DD43"/>
<stop offset="1" stop-color="#F7DD43" stop-opacity="0"/>
</linearGradient>
<linearGradient id="paint56_linear_122_130" x1="1096.5" y1="286" x2="1096.5" y2="584.818" gradientUnits="userSpaceOnUse">
<stop stop-color="#F7DD43"/>
<stop offset="1" stop-color="#F7DD43" stop-opacity="0"/>
</linearGradient>
<linearGradient id="paint57_linear_122_130" x1="1096.5" y1="286" x2="1096.5" y2="584.818" gradientUnits="userSpaceOnUse">
<stop stop-color="#F7DD43"/>
<stop offset="1" stop-color="#F7DD43" stop-opacity="0"/>
</linearGradient>
<linearGradient id="paint58_linear_122_130" x1="1096.5" y1="286" x2="1096.5" y2="584.818" gradientUnits="userSpaceOnUse">
<stop stop-color="#F7DD43"/>
<stop offset="1" stop-color="#F7DD43" stop-opacity="0"/>
</linearGradient>
<linearGradient id="paint59_linear_122_130" x1="1096.5" y1="286" x2="1096.5" y2="584.818" gradientUnits="userSpaceOnUse">
<stop stop-color="#F7DD43"/>
<stop offset="1" stop-color="#F7DD43" stop-opacity="0"/>
</linearGradient>
<linearGradient id="paint60_linear_122_130" x1="1096.5" y1="286" x2="1096.5" y2="584.818" gradientUnits="userSpaceOnUse">
<stop stop-color="#F7DD43"/>
<stop offset="1" stop-color="#F7DD43" stop-opacity="0"/>
</linearGradient>
<linearGradient id="paint61_linear_122_130" x1="1096.5" y1="286" x2="1096.5" y2="584.818" gradientUnits="userSpaceOnUse">
<stop stop-color="#F7DD43"/>
<stop offset="1" stop-color="#F7DD43" stop-opacity="0"/>
</linearGradient>
<linearGradient id="paint62_linear_122_130" x1="1096.5" y1="286" x2="1096.5" y2="584.818" gradientUnits="userSpaceOnUse">
<stop stop-color="#F7DD43"/>
<stop offset="1" stop-color="#F7DD43" stop-opacity="0"/>
</linearGradient>
<linearGradient id="paint63_linear_122_130" x1="1096.5" y1="286" x2="1096.5" y2="584.818" gradientUnits="userSpaceOnUse">
<stop stop-color="#F7DD43"/>
<stop offset="1" stop-color="#F7DD43" stop-opacity="0"/>
</linearGradient>
<linearGradient id="paint64_linear_122_130" x1="1096.5" y1="286" x2="1096.5" y2="584.818" gradientUnits="userSpaceOnUse">
<stop stop-color="#F7DD43"/>
<stop offset="1" stop-color="#F7DD43" stop-opacity="0"/>
</linearGradient>
<linearGradient id="paint65_linear_122_130" x1="1096.5" y1="286" x2="1096.5" y2="584.818" gradientUnits="userSpaceOnUse">
<stop stop-color="#F7DD43"/>
<stop offset="1" stop-color="#F7DD43" stop-opacity="0"/>
</linearGradient>
<linearGradient id="paint66_linear_122_130" x1="1096.5" y1="286" x2="1096.5" y2="584.818" gradientUnits="userSpaceOnUse">
<stop stop-color="#F7DD43"/>
<stop offset="1" stop-color="#F7DD43" stop-opacity="0"/>
</linearGradient>
<linearGradient id="paint67_linear_122_130" x1="1096.5" y1="286" x2="1096.5" y2="584.818" gradientUnits="userSpaceOnUse">
<stop stop-color="#F7DD43"/>
<stop offset="1" stop-color="#F7DD43" stop-opacity="0"/>
</linearGradient>
<linearGradient id="paint68_linear_122_130" x1="1096.5" y1="286" x2="1096.5" y2="584.818" gradientUnits="userSpaceOnUse">
<stop stop-color="#F7DD43"/>
<stop offset="1" stop-color="#F7DD43" stop-opacity="0"/>
</linearGradient>
<linearGradient id="paint69_linear_122_130" x1="1096.5" y1="286" x2="1096.5" y2="584.818" gradientUnits="userSpaceOnUse">
<stop stop-color="#F7DD43"/>
<stop offset="1" stop-color="#F7DD43" stop-opacity="0"/>
</linearGradient>
<linearGradient id="paint70_linear_122_130" x1="1096.5" y1="286" x2="1096.5" y2="584.818" gradientUnits="userSpaceOnUse">
<stop stop-color="#F7DD43"/>
<stop offset="1" stop-color="#F7DD43" stop-opacity="0"/>
</linearGradient>
<linearGradient id="paint71_linear_122_130" x1="1096.5" y1="286" x2="1096.5" y2="584.818" gradientUnits="userSpaceOnUse">
<stop stop-color="#F7DD43"/>
<stop offset="1" stop-color="#F7DD43" stop-opacity="0"/>
</linearGradient>
<linearGradient id="paint72_linear_122_130" x1="1096.5" y1="286" x2="1096.5" y2="584.818" gradientUnits="userSpaceOnUse">
<stop stop-color="#F7DD43"/>
<stop offset="1" stop-color="#F7DD43" stop-opacity="0"/>
</linearGradient>
<linearGradient id="paint73_linear_122_130" x1="1096.5" y1="286" x2="1096.5" y2="584.818" gradientUnits="userSpaceOnUse">
<stop stop-color="#F7DD43"/>
<stop offset="1" stop-color="#F7DD43" stop-opacity="0"/>
</linearGradient>
<linearGradient id="paint74_linear_122_130" x1="1096.5" y1="286" x2="1096.5" y2="584.818" gradientUnits="userSpaceOnUse">
<stop stop-color="#F7DD43"/>
<stop offset="1" stop-color="#F7DD43" stop-opacity="0"/>
</linearGradient>
<linearGradient id="paint75_linear_122_130" x1="1096.5" y1="286" x2="1096.5" y2="584.818" gradientUnits="userSpaceOnUse">
<stop stop-color="#F7DD43"/>
<stop offset="1" stop-color="#F7DD43" stop-opacity="0"/>
</linearGradient>
<linearGradient id="paint76_linear_122_130" x1="1096.5" y1="286" x2="1096.5" y2="584.818" gradientUnits="userSpaceOnUse">
<stop stop-color="#F7DD43"/>
<stop offset="1" stop-color="#F7DD43" stop-opacity="0"/>
</linearGradient>
<linearGradient id="paint77_linear_122_130" x1="1096.5" y1="286" x2="1096.5" y2="584.818" gradientUnits="userSpaceOnUse">
<stop stop-color="#F7DD43"/>
<stop offset="1" stop-color="#F7DD43" stop-opacity="0"/>
</linearGradient>
<linearGradient id="paint78_linear_122_130" x1="1096.5" y1="286" x2="1096.5" y2="584.818" gradientUnits="userSpaceOnUse">
<stop stop-color="#F7DD43"/>
<stop offset="1" stop-color="#F7DD43" stop-opacity="0"/>
</linearGradient>
<linearGradient id="paint79_linear_122_130" x1="1096.5" y1="286" x2="1096.5" y2="584.818" gradientUnits="userSpaceOnUse">
<stop stop-color="#F7DD43"/>
<stop offset="1" stop-color="#F7DD43" stop-opacity="0"/>
</linearGradient>
<linearGradient id="paint80_linear_122_130" x1="1096.5" y1="286" x2="1096.5" y2="584.818" gradientUnits="userSpaceOnUse">
<stop stop-color="#F7DD43"/>
<stop offset="1" stop-color="#F7DD43" stop-opacity="0"/>
</linearGradient>
<linearGradient id="paint81_linear_122_130" x1="1096.5" y1="286" x2="1096.5" y2="584.818" gradientUnits="userSpaceOnUse">
<stop stop-color="#F7DD43"/>
<stop offset="1" stop-color="#F7DD43" stop-opacity="0"/>
</linearGradient>
<linearGradient id="paint82_linear_122_130" x1="1096.5" y1="286" x2="1096.5" y2="584.818" gradientUnits="userSpaceOnUse">
<stop stop-color="#F7DD43"/>
<stop offset="1" stop-color="#F7DD43" stop-opacity="0"/>
</linearGradient>
<linearGradient id="paint83_linear_122_130" x1="1096.5" y1="286" x2="1096.5" y2="584.818" gradientUnits="userSpaceOnUse">
<stop stop-color="#F7DD43"/>
<stop offset="1" stop-color="#F7DD43" stop-opacity="0"/>
</linearGradient>
<linearGradient id="paint84_linear_122_130" x1="1096.5" y1="286" x2="1096.5" y2="584.818" gradientUnits="userSpaceOnUse">
<stop stop-color="#F7DD43"/>
<stop offset="1" stop-color="#F7DD43" stop-opacity="0"/>
</linearGradient>
<linearGradient id="paint85_linear_122_130" x1="1096.5" y1="286" x2="1096.5" y2="584.818" gradientUnits="userSpaceOnUse">
<stop stop-color="#F7DD43"/>
<stop offset="1" stop-color="#F7DD43" stop-opacity="0"/>
</linearGradient>
<linearGradient id="paint86_linear_122_130" x1="1096.5" y1="286" x2="1096.5" y2="584.818" gradientUnits="userSpaceOnUse">
<stop stop-color="#F7DD43"/>
<stop offset="1" stop-color="#F7DD43" stop-opacity="0"/>
</linearGradient>
<linearGradient id="paint87_linear_122_130" x1="1096.5" y1="286" x2="1096.5" y2="584.818" gradientUnits="userSpaceOnUse">
<stop stop-color="#F7DD43"/>
<stop offset="1" stop-color="#F7DD43" stop-opacity="0"/>
</linearGradient>
<linearGradient id="paint88_linear_122_130" x1="1096.5" y1="286" x2="1096.5" y2="584.818" gradientUnits="userSpaceOnUse">
<stop stop-color="#F7DD43"/>
<stop offset="1" stop-color="#F7DD43" stop-opacity="0"/>
</linearGradient>
<linearGradient id="paint89_linear_122_130" x1="1096.5" y1="286" x2="1096.5" y2="584.818" gradientUnits="userSpaceOnUse">
<stop stop-color="#F7DD43"/>
<stop offset="1" stop-color="#F7DD43" stop-opacity="0"/>
</linearGradient>
<linearGradient id="paint90_linear_122_130" x1="1096.5" y1="286" x2="1096.5" y2="584.818" gradientUnits="userSpaceOnUse">
<stop stop-color="#F7DD43"/>
<stop offset="1" stop-color="#F7DD43" stop-opacity="0"/>
</linearGradient>
<linearGradient id="paint91_linear_122_130" x1="1096.5" y1="286" x2="1096.5" y2="584.818" gradientUnits="userSpaceOnUse">
<stop stop-color="#F7DD43"/>
<stop offset="1" stop-color="#F7DD43" stop-opacity="0"/>
</linearGradient>
<linearGradient id="paint92_linear_122_130" x1="1096.5" y1="286" x2="1096.5" y2="584.818" gradientUnits="userSpaceOnUse">
<stop stop-color="#F7DD43"/>
<stop offset="1" stop-color="#F7DD43" stop-opacity="0"/>
</linearGradient>
<linearGradient id="paint93_linear_122_130" x1="1096.5" y1="286" x2="1096.5" y2="584.818" gradientUnits="userSpaceOnUse">
<stop stop-color="#F7DD43"/>
<stop offset="1" stop-color="#F7DD43" stop-opacity="0"/>
</linearGradient>
<clipPath id="clip0_122_130">
<rect width="1341" height="933" fill="white"/>
</clipPath>
</defs>
</svg>
