<svg width="50" height="50" viewBox="0 0 71 72" fill="none" xmlns="http://www.w3.org/2000/svg">
<g clip-path="url(#clip0_411_500)">
<path d="M50.6916 4.23843C46.0697 2.00354 40.8844 0.75 35.4063 0.75C29.9283 0.75 24.743 2.00354 20.121 4.23843L17.064 35.9062L20.121 67.5741C24.743 69.809 29.9283 71.0625 35.4063 71.0625C40.8844 71.0625 46.0697 69.809 50.6916 67.5741L53.7487 35.9062L50.6916 4.23843Z" fill="#FFDA44"/>
<path d="M35.4061 23.678L38.4411 33.0192H48.264L40.3176 38.7929L43.3527 48.1344L35.4061 42.3611L27.4596 48.1344L30.4952 38.7929L22.5488 33.0192H32.371L35.4061 23.678Z" fill="#496E2D"/>
<path d="M20.121 4.23965C8.36148 9.92604 0.25 21.9683 0.25 35.9062C0.25 49.8442 8.36148 61.8864 20.121 67.5728V4.23965Z" fill="#496E2D"/>
<path d="M50.6917 4.23965V67.5728C62.4511 61.8864 70.5626 49.8442 70.5626 35.9062C70.5626 21.9683 62.4511 9.92604 50.6917 4.23965Z" fill="#D80027"/>
</g>
<defs>
<clipPath id="clip0_411_500">
<rect width="70.3125" height="70.3125" fill="white" transform="translate(0.25 0.75)"/>
</clipPath>
</defs>
</svg>
