<svg width="50" height="50" viewBox="0 0 71 72" fill="none" xmlns="http://www.w3.org/2000/svg">
<g clip-path="url(#clip0_411_500)">
<path d="M35.4062 71.0625C54.8225 71.0625 70.5625 55.3225 70.5625 35.9062C70.5625 16.49 54.8225 0.75 35.4062 0.75C15.99 0.75 0.25 16.49 0.25 35.9062C0.25 55.3225 15.99 71.0625 35.4062 71.0625Z" fill="#F0F0F0"/>
<path d="M35.4063 0.75C21.4683 0.75 9.42505 8.86134 3.73853 20.621H67.074C61.3876 8.86134 49.3443 0.75 35.4063 0.75V0.75Z" fill="#338AF3"/>
<path d="M35.4063 71.0625C49.3443 71.0625 61.3876 62.9512 67.0742 51.1915H3.73853C9.42505 62.9512 21.4683 71.0625 35.4063 71.0625Z" fill="#338AF3"/>
<path d="M45.9139 35.9063L41.6203 37.926L43.9067 42.0842L39.2444 41.1922L38.6536 45.902L35.4062 42.438L32.1586 45.902L31.568 41.1922L26.9056 42.084L29.1919 37.9258L24.8984 35.9063L29.192 33.8866L26.9056 29.7285L31.5678 30.6203L32.1588 25.9105L35.4062 29.3745L38.6537 25.9105L39.2444 30.6203L43.9068 29.7285L41.6205 33.8867L45.9139 35.9063Z" fill="#FFDA44"/>
</g>
<defs>
<clipPath id="clip0_411_500">
<rect width="70.3125" height="70.3125" fill="white" transform="translate(0.25 0.75)"/>
</clipPath>
</defs>
</svg>
