<svg width="50" height="50" viewBox="0 0 71 72" fill="none" xmlns="http://www.w3.org/2000/svg">
<g clip-path="url(#clip0_411_530)">
<path d="M0.25 35.9971C0.25 40.2975 1.02357 44.4168 2.43669 48.2253L35.4062 51.2824L68.3758 48.2253C69.7889 44.4168 70.5625 40.2975 70.5625 35.9971C70.5625 31.6968 69.7889 27.5775 68.3758 23.7689L35.4062 20.7119L2.43669 23.7689C1.02357 27.5775 0.25 31.6968 0.25 35.9971H0.25Z" fill="#FFDA44"/>
<path d="M68.3756 23.769C63.4083 10.3816 50.522 0.840912 35.4061 0.840912C20.2901 0.840912 7.40385 10.3816 2.43652 23.769H68.3756Z" fill="#D80027"/>
<path d="M2.43652 48.2253C7.40385 61.6127 20.2901 71.1534 35.4061 71.1534C50.522 71.1534 63.4083 61.6127 68.3756 48.2253H2.43652Z" fill="#D80027"/>
</g>
<defs>
<clipPath id="clip0_411_530">
<rect width="70.3125" height="70.3125" fill="white" transform="translate(0.25 0.840912)"/>
</clipPath>
</defs>
</svg>
