<svg width="50" height="50" viewBox="0 0 71 72" fill="none" xmlns="http://www.w3.org/2000/svg">
<g clip-path="url(#clip0_411_500)">
<path d="M35.4062 71.0625C54.8225 71.0625 70.5625 55.3225 70.5625 35.9062C70.5625 16.49 54.8225 0.75 35.4062 0.75C15.99 0.75 0.25 16.49 0.25 35.9062C0.25 55.3225 15.99 71.0625 35.4062 71.0625Z" fill="#F0F0F0"/>
<path d="M27.7636 31.3207H70.2647C68.0176 14.0712 53.2681 0.75 35.4061 0.75C32.781 0.75 30.2244 1.04018 27.7634 1.58565V31.3207H27.7636Z" fill="#D80027"/>
<path d="M18.5924 31.3205V5.02463C8.9391 10.2917 2.02843 19.953 0.547607 31.3207H18.5924V31.3205Z" fill="#D80027"/>
<path d="M18.5922 40.4918H0.547607C2.02843 51.8595 8.9391 61.5207 18.5924 66.7877L18.5922 40.4918Z" fill="#D80027"/>
<path d="M27.7634 40.4919V70.2268C30.2244 70.7723 32.781 71.0625 35.4061 71.0625C53.2681 71.0625 68.0176 57.7413 70.2647 40.4918H27.7634V40.4919Z" fill="#D80027"/>
</g>
<defs>
<clipPath id="clip0_411_500">
<rect width="70.3125" height="70.3125" fill="white" transform="translate(0.25 0.75)"/>
</clipPath>
</defs>
</svg>
