<svg width="50" height="50" viewBox="0 0 71 72" fill="none" xmlns="http://www.w3.org/2000/svg">
<g clip-path="url(#clip0_411_500)">
<path d="M35.4062 71.0625C54.8225 71.0625 70.5625 55.3225 70.5625 35.9062C70.5625 16.49 54.8225 0.75 35.4062 0.75C15.99 0.75 0.25 16.49 0.25 35.9062C0.25 55.3225 15.99 71.0625 35.4062 71.0625Z" fill="#D80027"/>
<path d="M56.1826 29.6015H40.3109L35.4064 14.5068L30.5018 29.6015H14.6301L27.4705 38.9305L22.5658 54.0256L35.4064 44.6964L48.2469 54.0257L43.3422 38.9307L56.1826 29.6015ZM31.0643 37.7628L32.7228 32.6584H38.0898L39.7484 37.7628V37.7629L35.4064 40.9175L31.0644 37.7629L31.0643 37.7628ZM37.0966 29.6015H33.7163L35.4064 24.3994L37.0966 29.6015ZM42.3488 35.8736L41.3041 32.6586H46.7738L42.3488 35.8736ZM29.5085 32.6586L28.4638 35.8736L24.0387 32.6586H29.5085ZM28.3808 46.0221L30.071 40.8202L32.8059 42.807L28.3808 46.0221ZM38.0068 42.8072L40.7417 40.8203L42.432 46.0222L38.0068 42.8072Z" fill="#FFDA44"/>
</g>
<defs>
<clipPath id="clip0_411_500">
<rect width="70.3125" height="70.3125" fill="white" transform="translate(0.25 0.75)"/>
</clipPath>
</defs>
</svg>
