<svg width="50" height="50" viewBox="0 0 71 72" fill="none" xmlns="http://www.w3.org/2000/svg">
<g clip-path="url(#clip0_411_500)">
<path d="M70.5625 35.9062C70.5625 31.6059 69.7889 27.4865 68.3758 23.6781L35.4062 22.1494L2.43669 23.6779C1.02357 27.4865 0.25 31.6059 0.25 35.9062C0.25 40.2066 1.02357 44.326 2.43669 48.1344L35.4062 49.6631L68.3758 48.1346C69.7889 44.326 70.5625 40.2066 70.5625 35.9062Z" fill="#F0F0F0"/>
<path d="M35.4061 71.0625C50.522 71.0625 63.4083 61.522 68.3756 48.1345H2.43652C7.40385 61.522 20.2901 71.0625 35.4061 71.0625Z" fill="#0052B4"/>
<path d="M2.43652 23.6781H68.3758C63.4083 10.2905 50.522 0.75 35.4061 0.75C20.2901 0.75 7.40385 10.2905 2.43652 23.6781V23.6781Z" fill="#D80027"/>
<path d="M44.5778 25.2067H38.4636L39.4827 17.5639L43.5587 14.5068L47.6347 17.5639V23.6781L44.5778 25.2067Z" fill="#338AF3"/>
<path d="M26.2352 25.2067H32.3493L31.3302 17.5639L27.2542 14.5068L23.1782 17.5639V23.6781L26.2352 25.2067Z" fill="#338AF3"/>
<path d="M39.4825 25.2067H31.3301V17.5639L35.4063 14.5068L39.4825 17.5639V25.2067Z" fill="#0052B4"/>
<path d="M23.1782 23.6782V40.492C23.1782 44.4955 25.1121 48.0559 28.0949 50.2879L30.2349 49.7525L32.9353 52.4691C33.7339 52.6337 34.5602 52.7203 35.4066 52.7203C36.2484 52.7203 37.0706 52.6348 37.8649 52.4719L40.9475 49.9052L42.718 50.283C45.6995 48.0511 47.6348 44.4944 47.6348 40.492V23.6782H23.1782Z" fill="#F0F0F0"/>
<path d="M23.1782 23.678H28.0695V28.5693H23.1782V23.678Z" fill="#D80027"/>
<path d="M32.9607 23.678H37.8519V28.5693H32.9607V23.678Z" fill="#D80027"/>
<path d="M42.7434 23.678H47.6347V28.5693H42.7434V23.678Z" fill="#D80027"/>
<path d="M28.0693 28.5693H32.9606V33.4605H28.0693V28.5693Z" fill="#D80027"/>
<path d="M37.8521 28.5693H42.7433V33.4605H37.8521V28.5693Z" fill="#D80027"/>
<path d="M23.1782 33.459H28.0695V38.3503H23.1782V33.459Z" fill="#D80027"/>
<path d="M28.0693 38.3504H32.9606V43.2417H28.0693V38.3504Z" fill="#D80027"/>
<path d="M32.9607 33.459H37.8519V38.3503H32.9607V33.459Z" fill="#D80027"/>
<path d="M42.7434 33.459H47.6347V38.3503H42.7434V33.459Z" fill="#D80027"/>
<path d="M37.8521 38.3504H42.7433V43.2417H37.8521V38.3504Z" fill="#D80027"/>
<path d="M32.9607 43.2417H37.8519V48.133H32.9607V43.2417Z" fill="#D80027"/>
<path d="M28.0693 43.2421H23.4937C23.9133 45.0603 24.7384 46.724 25.8697 48.1333H28.0693V43.2421Z" fill="#D80027"/>
<path d="M42.7434 48.1334H44.9429C46.0745 46.7242 46.8993 45.0603 47.3189 43.2422H42.7434V48.1334Z" fill="#D80027"/>
<path d="M28.0693 48.1335V50.2677C29.4919 51.3382 31.1544 52.1057 32.9606 52.474V48.1335H28.0693Z" fill="#D80027"/>
<path d="M37.8521 48.1335V52.474C39.6583 52.106 41.3207 51.3382 42.7433 50.2677V48.1335H37.8521Z" fill="#D80027"/>
</g>
<defs>
<clipPath id="clip0_411_500">
<rect width="70.3125" height="70.3125" fill="white" transform="translate(0.25 0.75)"/>
</clipPath>
</defs>
</svg>
