<svg width="50" height="50" viewBox="0 0 71 72" fill="none" xmlns="http://www.w3.org/2000/svg">
<g clip-path="url(#clip0_411_500)">
<path d="M35.4062 71.0625C54.8225 71.0625 70.5625 55.3225 70.5625 35.9062C70.5625 16.49 54.8225 0.75 35.4062 0.75C15.99 0.75 0.25 16.49 0.25 35.9062C0.25 55.3225 15.99 71.0625 35.4062 71.0625Z" fill="#6DA544"/>
<path d="M20.1211 42.7846C20.1211 45.3171 22.1742 47.3702 24.7067 47.3702H38.4635C38.4635 49.4807 40.1743 51.1915 42.2848 51.1915H46.8703C48.9808 51.1915 50.6916 49.4807 50.6916 47.3702V42.7846H20.1211Z" fill="#F0F0F0"/>
<path d="M51.0739 20.621V31.3207C51.0739 33.0064 49.7026 34.3778 48.0168 34.3778V38.9633C52.2311 38.9633 55.6595 35.5348 55.6595 31.3207V20.621H51.0739Z" fill="#F0F0F0"/>
<path d="M18.2104 31.3207C18.2104 33.0064 16.839 34.3777 15.1533 34.3777V38.9633C19.3675 38.9633 22.796 35.5347 22.796 31.3207V20.6209H18.2104V31.3207Z" fill="#F0F0F0"/>
<path d="M44.1953 20.621H48.7809V31.3207H44.1953V20.621Z" fill="#F0F0F0"/>
<path d="M37.3168 26.735C37.3168 27.1565 36.9739 27.4993 36.5526 27.4993C36.1313 27.4993 35.7883 27.1563 35.7883 26.735V20.6208H31.2028V26.735C31.2028 27.1565 30.8599 27.4993 30.4386 27.4993C30.0172 27.4993 29.6743 27.1563 29.6743 26.735V20.6208H25.0886V26.735C25.0886 29.685 27.4886 32.0849 30.4386 32.0849C31.5747 32.0849 32.6283 31.7279 33.4956 31.1214C34.3629 31.7278 35.4166 32.0849 36.5527 32.0849C36.7815 32.0849 37.0065 32.0689 37.2277 32.0407C36.9028 33.3795 35.697 34.3777 34.2599 34.3777V38.9632C38.4741 38.9632 41.9025 35.5347 41.9025 31.3206V26.735V20.6208H37.317V26.735H37.3168Z" fill="#F0F0F0"/>
<path d="M25.0886 34.3778H31.967V38.9633H25.0886V34.3778Z" fill="#F0F0F0"/>
</g>
<defs>
<clipPath id="clip0_411_500">
<rect width="70.3125" height="70.3125" fill="white" transform="translate(0.25 0.75)"/>
</clipPath>
</defs>
</svg>
