<svg width="50" height="50" viewBox="0 0 71 72" fill="none" xmlns="http://www.w3.org/2000/svg">
<g clip-path="url(#clip0_411_500)">
<path d="M35.4062 71.0625C54.8225 71.0625 70.5625 55.3225 70.5625 35.9062C70.5625 16.49 54.8225 0.75 35.4062 0.75C15.99 0.75 0.25 16.49 0.25 35.9062C0.25 55.3225 15.99 71.0625 35.4062 71.0625Z" fill="#D80027"/>
<path d="M35.4062 52.7201C44.6922 52.7201 52.2201 45.1923 52.2201 35.9062C52.2201 26.6202 44.6922 19.0923 35.4062 19.0923C26.1201 19.0923 18.5923 26.6202 18.5923 35.9062C18.5923 45.1923 26.1201 52.7201 35.4062 52.7201Z" fill="#F0F0F0"/>
<path d="M37.4774 29.4773L40.3619 33.4523L45.0334 31.9376L42.1444 35.9091L45.0286 39.884L40.3586 38.3635L37.4696 42.335L37.4726 37.424L32.8027 35.9035L37.4744 34.3888L37.4774 29.4773Z" fill="#D80027"/>
<path d="M39.2277 45.8417C33.7406 45.8417 29.2923 41.3934 29.2923 35.9063C29.2923 30.4191 33.7406 25.9708 39.2277 25.9708C40.9386 25.9708 42.5485 26.4034 43.9539 27.165C41.7491 25.0088 38.734 23.6779 35.4064 23.6779C28.6531 23.6779 23.1782 29.1527 23.1782 35.9061C23.1782 42.6595 28.6531 48.1343 35.4064 48.1343C38.734 48.1343 41.7492 46.8035 43.9539 44.6472C42.5485 45.4091 40.9386 45.8417 39.2277 45.8417Z" fill="#D80027"/>
</g>
<defs>
<clipPath id="clip0_411_500">
<rect width="70.3125" height="70.3125" fill="white" transform="translate(0.25 0.75)"/>
</clipPath>
</defs>
</svg>
