<svg width="50" height="50" viewBox="0 0 71 72" fill="none" xmlns="http://www.w3.org/2000/svg">
<g clip-path="url(#clip0_411_500)">
<path d="M35.4062 71.0625C54.8225 71.0625 70.5625 55.3225 70.5625 35.9062C70.5625 16.49 54.8225 0.75 35.4062 0.75C15.99 0.75 0.25 16.49 0.25 35.9062C0.25 55.3225 15.99 71.0625 35.4062 71.0625Z" fill="#F0F0F0"/>
<path d="M70.5623 35.9063C70.5623 20.7903 61.0218 7.90404 47.6343 2.93671V68.876C61.0218 63.9085 70.5623 51.0222 70.5623 35.9063V35.9063Z" fill="#D80027"/>
<path d="M0.25 35.9063C0.25 51.0222 9.79066 63.9085 23.1781 68.8758V2.93671C9.79066 7.90404 0.25 20.7903 0.25 35.9063Z" fill="#0052B4"/>
</g>
<defs>
<clipPath id="clip0_411_500">
<rect width="70.3125" height="70.3125" fill="white" transform="translate(0.25 0.75)"/>
</clipPath>
</defs>
</svg>
