<svg width="50" height="50" viewBox="0 0 71 72" fill="none" xmlns="http://www.w3.org/2000/svg">
<g clip-path="url(#clip0_411_538)">
<path d="M35.7812 71.1534C55.1975 71.1534 70.9375 55.4134 70.9375 35.9972C70.9375 16.5809 55.1975 0.840912 35.7812 0.840912C16.365 0.840912 0.625 16.5809 0.625 35.9972C0.625 55.4134 16.365 71.1534 35.7812 71.1534Z" fill="#F0F0F0"/>
<path d="M68.7508 23.7689H2.81169C1.39857 27.5775 0.625 31.6968 0.625 35.9971C0.625 40.2974 1.39857 44.4168 2.81169 48.2253H68.7509C70.1641 44.4168 70.9375 40.2974 70.9375 35.9971C70.9375 31.6968 70.1641 27.5775 68.7508 23.7689Z" fill="#D80027"/>
<path d="M35.7813 0.840912C25.1258 0.840912 15.5783 5.58206 9.1311 13.0691H62.4314C55.9844 5.58206 46.4368 0.840912 35.7813 0.840912V0.840912Z" fill="#0052B4"/>
<path d="M62.4316 58.9252H9.1311C15.5783 66.4122 25.1258 71.1534 35.7813 71.1534C46.4368 71.1534 55.9844 66.4122 62.4316 58.9252Z" fill="#0052B4"/>
</g>
<defs>
<clipPath id="clip0_411_538">
<rect width="70.3125" height="70.3125" fill="white" transform="translate(0.625 0.840912)"/>
</clipPath>
</defs>
</svg>
