<svg width="50" height="50" viewBox="0 0 71 72" fill="none" xmlns="http://www.w3.org/2000/svg">
<g clip-path="url(#clip0_411_500)">
<path d="M35.4062 71.0625C54.8225 71.0625 70.5625 55.3225 70.5625 35.9062C70.5625 16.49 54.8225 0.75 35.4062 0.75C15.99 0.75 0.25 16.49 0.25 35.9062C0.25 55.3225 15.99 71.0625 35.4062 71.0625Z" fill="#F0F0F0"/>
<path d="M70.5625 35.9062C70.5625 55.3224 54.8224 71.0625 35.4062 71.0625C15.9901 71.0625 0.25 55.3224 0.25 35.9062" fill="#496E2D"/>
<path d="M61.0886 25.2142C59.8313 21.6487 56.4342 19.0925 52.4386 19.0925H44.5773C39.5122 19.0925 35.4061 23.1986 35.4061 28.2637C35.4061 29.9186 35.8466 31.509 36.6133 32.8493C33.6941 32.8254 30.9925 32.8695 29.2919 32.8493C29.2919 29.3123 29.2919 24.8065 29.2919 23.8637L29.6531 23.5025C31.2744 21.8812 30.7337 19.1792 30.7337 19.1792C30.7337 19.1792 28.0319 18.6388 26.4106 20.2601L24.5211 22.1496H22.4135C17.7704 22.1496 14.0066 25.9135 14.0066 30.5565H20.1208V37.4349C20.1208 38.4409 20.3236 39.3994 20.6902 40.2722L18.5922 42.0204H15.5351V38.9633H12.478V45.0775H26.2348V51.1917H23.1778V54.2487H29.2919V48.1346L32.0941 44.7718H38.7179L41.5201 48.1346V51.1917H38.463V54.2487H50.6912V37.4347C50.6912 34.9022 52.7443 32.8492 55.2768 32.8492C55.3419 32.8492 55.4064 32.8515 55.471 32.8541C55.3444 32.3641 55.2768 31.8504 55.2768 31.3207C55.2771 28.0455 57.8524 25.372 61.0886 25.2142V25.2142ZM44.5773 51.1915V44.7717H44.8321L47.6343 48.1344V51.1915H44.5773Z" fill="#D80027"/>
</g>
<defs>
<clipPath id="clip0_411_500">
<rect width="70.3125" height="70.3125" fill="white" transform="translate(0.25 0.75)"/>
</clipPath>
</defs>
</svg>
