<svg width="50" height="50" viewBox="0 0 71 65" fill="none" xmlns="http://www.w3.org/2000/svg">
<g clip-path="url(#clip0_411_550)">
<path d="M35.7812 71.2443C55.1975 71.2443 70.9375 55.5043 70.9375 36.0881C70.9375 16.6718 55.1975 0.931824 35.7812 0.931824C16.365 0.931824 0.625 16.6718 0.625 36.0881C0.625 55.5043 16.365 71.2443 35.7812 71.2443Z" fill="#F0F0F0"/>
<path d="M70.9376 36.088C70.9376 22.15 62.8263 10.1068 51.0667 4.42023V67.7557C62.8263 62.0693 70.9376 50.0261 70.9376 36.088V36.088Z" fill="#D80027"/>
<path d="M0.625 36.088C0.625 50.0261 8.73634 62.0693 20.496 67.7559V4.42023C8.73634 10.1068 0.625 22.15 0.625 36.088Z" fill="#D80027"/>
<path d="M41.8956 40.6736L48.0096 37.6165L44.9527 36.088V33.0309L38.8385 36.088L41.8956 29.9739H38.8385L35.7814 25.3883L32.7243 29.9739H29.6673L32.7243 36.088L26.6102 33.0309V36.088L23.5532 37.6165L29.6673 40.6736L28.1388 43.7307H34.2529V48.3162H37.3099V43.7307H43.4241L41.8956 40.6736Z" fill="#D80027"/>
</g>
<defs>
<clipPath id="clip0_411_550">
<rect width="70.3125" height="70.3125" fill="white" transform="translate(0.625 0.931824)"/>
</clipPath>
</defs>
</svg>
