<svg width="50" height="50" viewBox="0 0 71 72" fill="none" xmlns="http://www.w3.org/2000/svg">
<g clip-path="url(#clip0_411_500)">
<path d="M2.43652 48.1345C7.40385 61.5219 20.2901 71.0625 35.4061 71.0625C50.522 71.0625 63.4083 61.5219 68.3756 48.1345L35.4061 45.0775L2.43652 48.1345Z" fill="#FFDA44"/>
<path d="M35.4061 0.75C20.2901 0.75 7.40385 10.2905 2.43652 23.6781L35.4061 26.735L68.3756 23.6779C63.4083 10.2905 50.522 0.75 35.4061 0.75Z" fill="black"/>
<path d="M2.43669 23.678C1.02357 27.4866 0.25 31.6059 0.25 35.9062C0.25 40.2066 1.02357 44.3259 2.43669 48.1344H68.3759C69.7891 44.3259 70.5625 40.2066 70.5625 35.9062C70.5625 31.6059 69.7891 27.4866 68.3758 23.678H2.43669Z" fill="#D80027"/>
</g>
<defs>
<clipPath id="clip0_411_500">
<rect width="70.3125" height="70.3125" fill="white" transform="translate(0.25 0.75)"/>
</clipPath>
</defs>
</svg>
