<svg width="50" height="50" viewBox="0 0 71 72" fill="none" xmlns="http://www.w3.org/2000/svg">
<g clip-path="url(#clip0_411_500)">
<path d="M35.4062 71.0625C54.8225 71.0625 70.5625 55.3225 70.5625 35.9062C70.5625 16.49 54.8225 0.75 35.4062 0.75C15.99 0.75 0.25 16.49 0.25 35.9062C0.25 55.3225 15.99 71.0625 35.4062 71.0625Z" fill="#F0F0F0"/>
<path d="M35.4061 0.75C20.2901 0.75 7.40385 10.2905 2.43652 23.6781H68.3758C63.4083 10.2905 50.522 0.75 35.4061 0.75V0.75Z" fill="#A2001D"/>
<path d="M35.4061 71.0625C50.522 71.0625 63.4083 61.522 68.3756 48.1345H2.43652C7.40385 61.522 20.2901 71.0625 35.4061 71.0625Z" fill="#0052B4"/>
</g>
<defs>
<clipPath id="clip0_411_500">
<rect width="70.3125" height="70.3125" fill="white" transform="translate(0.25 0.75)"/>
</clipPath>
</defs>
</svg>
