<svg width="50" height="50" viewBox="0 0 71 65" fill="none" xmlns="http://www.w3.org/2000/svg">
<g clip-path="url(#clip0_411_543)">
<path d="M47.6343 3.11852C43.8258 1.7054 39.7065 0.931824 35.4061 0.931824C31.1058 0.931824 26.9865 1.7054 23.1779 3.11852L20.1208 36.0881L23.1779 69.0576C26.9865 70.4709 31.1058 71.2443 35.4061 71.2443C39.7065 71.2443 43.8258 70.4709 47.6343 69.0576L50.6914 36.0881L47.6343 3.11852Z" fill="#FFDA44"/>
<path d="M70.5623 36.0881C70.5623 20.9723 61.0218 8.08585 47.6343 3.11865V69.0579C61.0218 64.0903 70.5623 51.2042 70.5623 36.0881V36.0881Z" fill="#D80027"/>
<path d="M0.25 36.0881C0.25 51.2042 9.79053 64.0903 23.1781 69.0578V3.11865C9.79053 8.08585 0.25 20.9723 0.25 36.0881V36.0881Z" fill="black"/>
</g>
<defs>
<clipPath id="clip0_411_543">
<rect width="70.3125" height="70.3125" fill="white" transform="translate(0.25 0.931824)"/>
</clipPath>
</defs>
</svg>
